<svg width="42" height="43" viewBox="0 0 42 43" fill="none" xmlns="http://www.w3.org/2000/svg">
<path d="M22.7995 3.6936C24.7683 3.69885 25.7675 3.70935 26.6303 3.73385L26.9698 3.7461C27.3618 3.7601 27.7485 3.7776 28.2158 3.7986C30.0778 3.8861 31.3483 4.1801 32.463 4.61235C33.618 5.05685 34.591 5.65885 35.564 6.6301C36.4539 7.50492 37.1424 8.56313 37.5818 9.7311C38.014 10.8459 38.308 12.1164 38.3955 13.9801C38.4165 14.4456 38.434 14.8324 38.448 15.2261L38.4585 15.5656C38.4848 16.4266 38.4953 17.4259 38.4988 19.3946L38.5005 20.7001V22.9926C38.5048 24.2691 38.4914 25.5455 38.4603 26.8216L38.4498 27.1611C38.4358 27.5549 38.4183 27.9416 38.3973 28.4071C38.3098 30.2709 38.0123 31.5396 37.5818 32.6561C37.1437 33.8247 36.455 34.8832 35.564 35.7571C34.689 36.6467 33.6308 37.3352 32.463 37.7749C31.3483 38.2071 30.0778 38.5011 28.2158 38.5886C27.8005 38.6082 27.3852 38.6257 26.9698 38.6411L26.6303 38.6516C25.7675 38.6761 24.7683 38.6884 22.7995 38.6919L21.494 38.6936H19.2033C17.9262 38.698 16.6492 38.6846 15.3725 38.6534L15.033 38.6429C14.6176 38.6271 14.2022 38.609 13.787 38.5886C11.925 38.5011 10.6545 38.2071 9.53802 37.7749C8.37019 37.3363 7.3124 36.6476 6.43877 35.7571C5.5481 34.8826 4.85891 33.8243 4.41927 32.6561C3.98702 31.5413 3.69302 30.2709 3.60552 28.4071C3.58602 27.9919 3.56852 27.5765 3.55302 27.1611L3.54427 26.8216C3.51202 25.5455 3.49744 24.2691 3.50052 22.9926V19.3946C3.49564 18.1182 3.50847 16.8417 3.53902 15.5656L3.55127 15.2261C3.56527 14.8324 3.58277 14.4456 3.60377 13.9801C3.69127 12.1164 3.98527 10.8476 4.41752 9.7311C4.85697 8.56194 5.54753 7.50339 6.44052 6.6301C7.31393 5.74018 8.37102 5.05158 9.53802 4.61235C10.6545 4.1801 11.9233 3.8861 13.787 3.7986C14.2525 3.7776 14.641 3.7601 15.033 3.7461L15.3725 3.7356C16.6486 3.70451 17.9251 3.69109 19.2015 3.69535L22.7995 3.6936ZM21.0005 12.4436C18.6799 12.4436 16.4543 13.3655 14.8133 15.0064C13.1724 16.6474 12.2505 18.873 12.2505 21.1936C12.2505 23.5142 13.1724 25.7398 14.8133 27.3808C16.4543 29.0217 18.6799 29.9436 21.0005 29.9436C23.3212 29.9436 25.5468 29.0217 27.1877 27.3808C28.8286 25.7398 29.7505 23.5142 29.7505 21.1936C29.7505 18.873 28.8286 16.6474 27.1877 15.0064C25.5468 13.3655 23.3212 12.4436 21.0005 12.4436ZM21.0005 15.9436C21.69 15.9435 22.3727 16.0792 23.0097 16.3429C23.6467 16.6066 24.2255 16.9932 24.7131 17.4807C25.2007 17.9681 25.5875 18.5468 25.8514 19.1837C26.1154 19.8206 26.2513 20.5033 26.2514 21.1927C26.2515 21.8822 26.1158 22.5649 25.8521 23.2019C25.5884 23.8389 25.2018 24.4177 24.7143 24.9053C24.2269 25.3929 23.6482 25.7797 23.0113 26.0436C22.3744 26.3076 21.6917 26.4435 21.0023 26.4436C19.6099 26.4436 18.2745 25.8905 17.29 24.9059C16.3054 23.9213 15.7523 22.586 15.7523 21.1936C15.7523 19.8012 16.3054 18.4659 17.29 17.4813C18.2745 16.4967 19.6099 15.9436 21.0023 15.9436M30.1898 9.8186C29.6096 9.8186 29.0532 10.0491 28.643 10.4593C28.2327 10.8695 28.0023 11.4259 28.0023 12.0061C28.0023 12.5863 28.2327 13.1427 28.643 13.5529C29.0532 13.9631 29.6096 14.1936 30.1898 14.1936C30.7699 14.1936 31.3263 13.9631 31.7366 13.5529C32.1468 13.1427 32.3773 12.5863 32.3773 12.0061C32.3773 11.4259 32.1468 10.8695 31.7366 10.4593C31.3263 10.0491 30.7699 9.8186 30.1898 9.8186Z" fill="white"/>
</svg>
