<svg width="42" height="42" viewBox="0 0 42 42" fill="none" xmlns="http://www.w3.org/2000/svg">
<path d="M21.0019 3.5C30.6671 3.5 38.5019 11.3348 38.5019 21C38.5019 30.6652 30.6671 38.5 21.0019 38.5C17.9092 38.505 14.871 37.6865 12.1994 36.1287L3.50886 38.5L5.87486 29.806C4.31577 27.1335 3.49669 24.094 3.50186 21C3.50186 11.3348 11.3366 3.5 21.0019 3.5ZM15.0379 12.775L14.6879 12.789C14.4613 12.8028 14.2398 12.8623 14.0369 12.964C13.847 13.0715 13.6737 13.2059 13.5224 13.363C13.3124 13.5608 13.1934 13.7323 13.0656 13.8985C12.4183 14.7401 12.0698 15.7733 12.0751 16.835C12.0786 17.6925 12.3026 18.5273 12.6526 19.3077C13.3684 20.8862 14.5461 22.5575 16.1001 24.1062C16.4746 24.479 16.8421 24.8535 17.2376 25.2017C19.1685 26.9018 21.4695 28.1278 23.9576 28.7823L24.9516 28.9345C25.2754 28.952 25.5991 28.9275 25.9246 28.9118C26.4343 28.8854 26.9319 28.7474 27.3824 28.5075C27.6115 28.3895 27.8352 28.261 28.0526 28.1225C28.0526 28.1225 28.1279 28.0735 28.2714 27.965C28.5076 27.79 28.6529 27.6658 28.8489 27.461C28.9941 27.3105 29.1201 27.1338 29.2164 26.9325C29.3529 26.6473 29.4894 26.103 29.5454 25.6497C29.5874 25.3032 29.5751 25.1143 29.5699 24.997C29.5629 24.8098 29.4071 24.6155 29.2374 24.5333L28.2189 24.0765C28.2189 24.0765 26.6964 23.4132 25.7654 22.9897C25.6679 22.9472 25.5635 22.9229 25.4574 22.918C25.3376 22.9057 25.2166 22.9192 25.1025 22.9575C24.9884 22.9958 24.8839 23.0582 24.7959 23.1402C24.7871 23.1367 24.6699 23.2365 23.4046 24.7695C23.332 24.8671 23.232 24.9408 23.1173 24.9813C23.0026 25.0219 22.8784 25.0273 22.7606 24.997C22.6466 24.9664 22.5349 24.9278 22.4264 24.8815C22.2094 24.7905 22.1341 24.7555 21.9854 24.6925C20.981 24.2542 20.0511 23.662 19.2291 22.9373C19.0086 22.7448 18.8039 22.5347 18.5939 22.3317C17.9054 21.6724 17.3054 20.9265 16.8089 20.1128L16.7056 19.9465C16.6314 19.8348 16.5715 19.7143 16.5271 19.5877C16.4606 19.3305 16.6339 19.124 16.6339 19.124C16.6339 19.124 17.0591 18.6585 17.2569 18.4065C17.4494 18.1615 17.6121 17.9235 17.7171 17.7538C17.9236 17.4213 17.9884 17.08 17.8799 16.8158C17.3899 15.6188 16.8824 14.427 16.3609 13.244C16.2576 13.0095 15.9514 12.8415 15.6731 12.8082C15.5786 12.7977 15.4841 12.7872 15.3896 12.7802C15.1546 12.7686 14.9191 12.7709 14.6844 12.7873L15.0379 12.775Z" fill="white"/>
</svg>
