<svg width="26" height="18" viewBox="0 0 26 18" fill="none" xmlns="http://www.w3.org/2000/svg">
<path d="M1.66667 17.5H24.3333C25.1125 17.5 25.75 16.8625 25.75 16.0833C25.75 15.3042 25.1125 14.6667 24.3333 14.6667H1.66667C0.8875 14.6667 0.25 15.3042 0.25 16.0833C0.25 16.8625 0.8875 17.5 1.66667 17.5ZM1.66667 10.4167H24.3333C25.1125 10.4167 25.75 9.77917 25.75 9C25.75 8.22083 25.1125 7.58333 24.3333 7.58333H1.66667C0.8875 7.58333 0.25 8.22083 0.25 9C0.25 9.77917 0.8875 10.4167 1.66667 10.4167ZM0.25 1.91667C0.25 2.69583 0.8875 3.33333 1.66667 3.33333H24.3333C25.1125 3.33333 25.75 2.69583 25.75 1.91667C25.75 1.1375 25.1125 0.5 24.3333 0.5H1.66667C0.8875 0.5 0.25 1.1375 0.25 1.91667Z" fill="#133875"/>
</svg>
