<svg width="195" height="102" viewBox="0 0 195 102" fill="none" xmlns="http://www.w3.org/2000/svg">
<g clip-path="url(#clip0_1347_2396)">
<path d="M55.3182 101.774L50.1343 88.3193H52.058L55.5431 98.0973C55.821 98.8802 56.0584 99.6132 56.2457 100.299C56.452 99.5631 56.6923 98.8302 56.9671 98.0973L60.5835 88.3193H62.3948L57.1641 101.774H55.3184H55.3182ZM63.4503 95.2253C63.4503 92.9953 64.0499 91.2478 65.2459 89.9855C66.4421 88.7233 67.9848 88.094 69.8773 88.094C71.1169 88.094 72.232 88.3915 73.2281 88.9833C74.2212 89.5753 74.9799 90.4022 75.5016 91.4639C76.0231 92.5225 76.2854 93.7251 76.2854 95.0688C76.2854 96.4312 76.0106 97.6526 75.4609 98.727C74.9113 99.8045 74.1337 100.619 73.1281 101.17C72.1194 101.724 71.0326 102 69.8679 102C68.603 102 67.4757 101.693 66.4795 101.082C65.4864 100.472 64.7308 99.6384 64.2187 98.5798C63.7065 97.5242 63.4503 96.4062 63.4503 95.2253ZM65.2866 95.2568C65.2866 96.8759 65.7206 98.1508 66.5888 99.0809C67.4569 100.011 68.5468 100.478 69.8586 100.478C71.1951 100.478 72.2913 100.008 73.1564 99.0683C74.0183 98.1286 74.4492 96.7942 74.4492 95.0656C74.4492 93.9725 74.2649 93.0172 73.8963 92.2029C73.528 91.3887 72.9876 90.756 72.2788 90.3082C71.5667 89.8603 70.7704 89.6347 69.8866 89.6347C68.6314 89.6347 67.5508 90.0669 66.6451 90.9313C65.7394 91.7958 65.2866 93.2365 65.2866 95.2566V95.2568ZM82.1684 101.774V96.0742L76.9968 88.3195H79.1329L81.7843 92.3911C82.2777 93.1458 82.7369 93.9008 83.1553 94.6554C83.5643 93.9508 84.0609 93.1614 84.6385 92.2844L87.2369 88.3193H89.3073L83.9484 96.074V101.774H82.1684V101.774ZM88.6865 101.774L93.8332 88.3193H95.7851L101.247 101.774H99.2267L97.6746 97.6966H92.0252L90.5698 101.774H88.6867H88.6865ZM92.5464 96.2495H97.1183L95.7193 92.5193C95.2977 91.3856 94.9791 90.4491 94.7575 89.71C94.5732 90.5869 94.3266 91.4483 94.0173 92.3002L92.5464 96.2497V96.2495ZM108.932 96.4938V94.9153H114.61V99.9014C113.739 100.597 112.839 101.123 111.912 101.474C110.984 101.824 110.032 102 109.057 102C107.74 102 106.543 101.718 105.466 101.151C104.392 100.587 103.577 99.7666 103.03 98.6985C102.48 97.6274 102.206 96.4309 102.206 95.1124C102.206 93.8031 102.477 92.5817 103.024 91.4448C103.57 90.311 104.354 89.4686 105.379 88.9204C106.403 88.3692 107.583 88.0936 108.92 88.0936C109.888 88.0936 110.766 88.2502 111.55 88.5664C112.334 88.8829 112.949 89.3213 113.392 89.882C113.839 90.4457 114.176 91.1817 114.407 92.0869L112.805 92.5254C112.602 91.8425 112.352 91.3039 112.055 90.9093C111.756 90.5178 111.331 90.2047 110.775 89.9699C110.222 89.735 109.607 89.616 108.929 89.616C108.121 89.616 107.421 89.7412 106.828 89.9885C106.238 90.2359 105.763 90.5617 105.397 90.9689C105.035 91.3729 104.754 91.8177 104.554 92.2999C104.214 93.136 104.042 94.0382 104.042 95.0121C104.042 96.2149 104.249 97.2201 104.657 98.0314C105.07 98.8396 105.669 99.441 106.453 99.8323C107.24 100.224 108.074 100.421 108.958 100.421C109.726 100.421 110.475 100.271 111.206 99.9732C111.937 99.6724 112.49 99.3564 112.867 99.0147V96.4936H108.933L108.932 96.4938ZM117.267 101.774V88.3192H126.955V89.8976H119.047V94.0318H126.449V95.6102H119.047V100.195H127.273V101.774H117.267V101.774ZM129.147 97.4521L130.815 97.3018C130.893 97.9784 131.077 98.5327 131.367 98.968C131.658 99.4001 132.107 99.751 132.716 100.02C133.325 100.287 134.012 100.421 134.774 100.421C135.452 100.421 136.049 100.321 136.567 100.117C137.085 99.914 137.47 99.6351 137.722 99.2813C137.976 98.9273 138.103 98.5421 138.103 98.1287C138.103 97.7091 137.981 97.3426 137.738 97.0262C137.494 96.7131 137.092 96.4498 136.53 96.2338C136.17 96.0961 135.374 95.8768 134.14 95.5793C132.907 95.282 132.045 95.0029 131.551 94.74C130.911 94.4019 130.437 93.9821 130.124 93.4842C129.809 92.9862 129.653 92.4255 129.653 91.8085C129.653 91.1256 129.846 90.4898 130.231 89.9011C130.615 89.3091 131.174 88.8611 131.914 88.5543C132.651 88.2474 133.472 88.094 134.375 88.094C135.368 88.094 136.246 88.2537 137.004 88.5763C137.763 88.8959 138.347 89.3687 138.756 89.9951C139.165 90.6186 139.384 91.3263 139.415 92.1155L137.71 92.2471C137.619 91.3982 137.31 90.7562 136.783 90.324C136.255 89.8888 135.474 89.6726 134.444 89.6726C133.369 89.6726 132.585 89.8698 132.095 90.2644C131.605 90.6592 131.358 91.1352 131.358 91.6928C131.358 92.1751 131.533 92.5727 131.88 92.886C132.223 93.1961 133.113 93.5186 134.556 93.8445C135.999 94.1732 136.989 94.4582 137.526 94.7027C138.304 95.0629 138.882 95.5169 139.253 96.0714C139.625 96.6226 139.809 97.2584 139.809 97.9788C139.809 98.6961 139.606 99.3663 139.197 99.9989C138.788 100.632 138.204 101.123 137.439 101.474C136.674 101.825 135.815 102 134.856 102C133.644 102 132.629 101.822 131.811 101.468C130.99 101.114 130.35 100.581 129.884 99.8672C129.416 99.1562 129.172 98.3513 129.147 97.4523L129.147 97.4521Z" fill="#545454"/>
<path d="M173.824 60.8492C173.323 58.5368 172.737 56.2164 172.363 53.9231C171.942 50.9523 171.591 47.9279 172.017 45.1092C172.219 43.782 172.644 42.1703 173.381 41.7144C173.783 41.4596 174.015 41.4327 174.323 41.6812C174.636 41.9538 174.972 42.598 175.006 43.1099C175.078 44.3486 174.579 45.8525 174.04 47.2265C173.522 48.6478 172.821 50.0072 172.145 51.3978C173.212 50.2711 174.099 49.0006 174.952 47.6812C175.725 46.3177 176.525 44.9259 176.626 43.0718C176.652 42.6249 176.539 42.036 176.372 41.6386C176.212 41.2068 175.979 40.7582 175.578 40.3601C175.196 39.9625 174.596 39.6449 173.97 39.6155C173.347 39.578 172.775 39.7768 172.32 40.0567C171.372 40.6051 170.893 41.6306 170.607 42.3648C170.286 43.1641 170.103 43.9825 169.962 44.7966C169.519 48.0725 170.016 51.231 170.775 54.251C171.276 56.2096 172.109 58.0501 172.724 59.9618C173.268 61.6497 174.11 64.2108 174.42 66.0433C174.587 67.0334 174.803 68.5027 174.54 70.4318C174.398 71.4809 174.073 72.4968 173.649 73.4715L173.117 74.7575L172.42 75.9537C172.007 76.7861 171.34 77.4346 170.783 78.1559C169.47 79.4093 168.018 80.5587 166.285 81.1703C162.922 82.6166 159.123 82.7776 155.437 82.7064C151.723 82.5933 148.008 82.1248 144.309 81.5587C136.021 80.1983 104.566 72.4949 76.8993 72.6046C55.2172 72.6895 35.6948 80.2685 32.589 81.4591C29.055 82.8072 25.623 84.4275 22.3351 86.2913C19.0636 88.1667 15.8727 90.2723 13.2326 92.9756C16.0248 90.4404 19.2883 88.5175 22.5977 86.7768C25.9317 85.0663 29.3908 83.6054 32.9407 82.4185C40.0015 79.9319 47.3295 78.2557 54.7324 77.1815C69.5415 74.9761 84.6091 74.8555 99.4991 76.4751C106.955 77.1921 114.381 78.2577 121.789 79.4987C129.202 80.7097 136.589 82.1686 144.085 83.1396C147.833 83.6159 151.609 83.9974 155.417 84.0171C159.198 83.9875 163.134 83.7524 166.69 82.1015C168.501 81.3736 170.031 80.0734 171.361 78.6821C171.926 77.8939 172.594 77.1764 172.994 76.2909L173.666 75.0148L174.161 73.6661C174.902 71.7672 175.151 69.7502 175.043 67.7509C174.958 66.1455 173.921 61.2974 173.824 60.8494L173.824 60.8492Z" fill="#133875"/>
<path d="M91.3958 36.2754C92.3033 36.2754 93.2106 35.7297 94.1163 34.6386L97.8356 30.1825C98.7412 29.1524 99.0742 28.243 98.832 27.4541C98.5908 26.6671 97.8356 26.272 96.5642 26.272H91.4866C90.2159 26.272 89.4606 26.4238 89.2195 26.726C88.9778 27.0308 88.8863 27.6362 88.9471 28.5456L89.5826 34.6386C89.8834 35.7297 90.4882 36.2754 91.3958 36.2754Z" fill="white"/>
<path d="M104.454 53.8744C104.817 52.8739 105.118 52.0704 105.361 51.4642C105.722 50.6155 106.177 49.6152 106.722 48.4626C107.266 47.3119 107.885 46.2211 108.581 45.1886C109.275 44.1587 110.031 43.2645 110.847 42.5057C111.663 41.7481 112.554 41.339 113.523 41.2781H113.703C114.067 41.2781 114.37 41.4006 114.611 41.6417C114.795 41.8638 114.853 42.1415 114.974 42.5967C115.094 43.0515 115.094 43.7651 114.974 44.7345C114.67 46.6751 114.081 48.3119 113.206 49.6454C112.329 50.9794 111.316 52.1012 110.168 53.0099C109.018 53.9194 107.854 54.6473 106.675 55.1931C105.497 55.7383 104.485 56.1335 103.638 56.3747C103.819 55.7086 104.09 54.8744 104.454 53.8744ZM152.329 34.7802C152.053 35.4774 151.611 36.1081 150.992 36.4834C150.435 36.8464 149.646 37.0648 149.033 36.7055C148.079 36.1462 148.045 34.5703 148.249 33.8105C148.51 32.839 149.472 31.0878 151.649 30.3762C151.955 30.276 152.294 30.2231 152.631 30.1695C152.891 31.7317 152.848 33.3158 152.329 34.7802ZM194.501 24.8624C194.259 24.6506 194.048 24.4847 193.867 24.3615C193.504 24.3026 193.262 24.3929 193.14 24.6341C192.596 25.4847 191.538 26.2579 189.967 26.9545C188.394 27.6516 185.917 27.9097 182.53 27.7269C181.382 27.6673 180.174 27.6061 178.905 27.5448C177.817 27.4857 176.559 27.4087 175.141 27.3177C173.72 27.2271 172.313 27.0913 170.924 26.9085L172.104 23.4529C172.224 23.211 172.208 23.0584 172.057 22.9974C171.905 22.9385 171.8 22.9064 171.74 22.9064H164.667C164.243 22.9679 164.032 23.1199 164.032 23.3618L163.124 25.9985C159.31 25.937 155.43 26.2219 152.687 26.604C152.513 26.1474 152.363 25.6815 152.149 25.2423C151.426 23.7309 150.373 22.3139 149.251 21.1109C148.134 19.884 146.946 18.7382 145.714 17.6355C143.21 15.485 140.526 13.5019 137.498 12.0132C135.985 11.2779 133.863 10.2798 132.132 9.96042C130.408 9.59673 129.586 9.73036 127.958 10.1728C124.642 11.0631 121.152 13.0709 118.357 14.8204C115.593 16.6292 112.994 18.6593 110.584 20.8942C108.247 23.1814 105.956 25.6416 104.531 28.6025C106.377 25.9116 108.793 23.7309 111.299 21.7177C113.795 19.6871 116.464 17.8706 119.248 16.2972C122.007 14.7017 124.921 13.3092 127.896 12.5338C130.839 11.6602 133.763 12.5026 136.618 13.8447C139.431 15.2143 142.108 16.9891 144.618 18.9667C145.884 19.943 147.118 20.9714 148.276 22.0697C149.466 23.1503 150.441 24.3267 151.146 25.7512C151.311 26.0822 151.468 26.4219 151.615 26.7689C150.995 26.8741 150.434 26.9813 150.014 27.0907C148.01 27.6106 146.207 28.3099 145.524 30.3618C144.737 32.7338 145.237 35.272 147.649 36.902C147.736 36.9599 148.384 37.3507 148.759 37.4529C149.639 37.6909 150.55 37.521 151.346 37.0843C152.142 36.643 152.708 35.8845 153.058 35.0932C153.754 33.4854 153.803 31.7335 153.607 30.0715C156.736 29.917 160.468 31.0921 161.312 31.0921L153.331 54.0112L153.246 54.2242C152.314 55.7754 151.324 57.2855 150.249 58.7401C149.039 60.3769 147.875 61.7116 146.759 62.7415C145.638 63.7736 144.808 64.0153 144.264 63.4701L143.992 62.9243V62.5594C143.87 62.0751 143.87 61.546 143.992 60.9681C144.114 60.3933 144.233 59.9842 144.355 59.7404C144.719 58.4077 145.292 56.7397 146.079 54.738C146.862 52.7375 147.559 50.8595 148.164 49.1003C148.586 48.0697 148.858 46.9781 148.98 45.8263C149.1 44.6744 149.039 43.5834 148.799 42.5522C148.678 41.885 148.359 41.1277 147.848 40.2779C147.332 39.4299 146.47 38.8534 145.263 38.55C144.233 38.3081 143.326 38.2774 142.542 38.4582C142.238 38.5191 141.982 38.5807 141.77 38.641C141.558 38.7019 141.302 38.7924 140.999 38.9137C140.758 39.0355 140.605 39.0958 140.546 39.0958C139.154 39.884 137.793 41.0963 136.466 42.7335C135.134 44.3703 133.896 46.068 132.747 47.8266C133.412 45.8871 134.018 44.129 134.561 42.5521C135.106 40.975 135.528 39.7634 135.831 38.9137C135.889 38.6725 135.861 38.5191 135.739 38.4582C135.617 38.3999 135.498 38.3679 135.378 38.3679H128.394C128.152 38.3679 127.986 38.4287 127.897 38.55C127.806 38.6725 127.76 38.7629 127.76 38.8231L122.927 52.5999C122.683 53.0072 122.459 53.3941 122.183 53.8292C121.185 55.4056 120.143 56.9206 119.055 58.3764C118.751 58.7401 118.223 59.3316 117.468 60.1498C116.71 60.9682 115.91 61.6821 115.064 62.2869C114.398 62.7738 113.553 63.2579 112.526 63.7429C111.677 64.1066 110.742 64.3945 109.714 64.6056C108.685 64.8198 107.629 64.8037 106.539 64.5613C106.055 64.44 105.662 64.2887 105.362 64.1066C105.118 64.0463 104.846 63.8648 104.545 63.5608C103.94 63.015 103.561 62.3031 103.411 61.4237C103.26 60.5449 103.214 59.6502 103.274 58.7401C106.417 58.4374 109.018 57.8313 111.074 56.9206C113.129 56.0117 114.778 54.9818 116.016 53.8292C117.254 52.6774 118.147 51.4807 118.691 50.2364C119.236 48.9941 119.6 47.9172 119.78 47.0086C119.96 46.0991 120.052 45.4322 120.052 45.0073C120.111 44.2198 120.035 43.6642 119.916 43.098C119.811 42.6007 119.658 42.2784 119.6 42.0968C119.236 41.0668 118.736 40.2933 118.103 39.7776C117.467 39.2626 116.818 38.8841 116.151 38.641C115.427 38.3999 114.641 38.2774 113.795 38.2774C110.832 38.2171 107.946 39.1408 105.134 41.0508C102.322 42.9615 99.9206 45.9166 97.9247 49.9187C96.9761 51.6534 96.3239 53.3345 95.9424 54.9656C95.8755 55.0739 95.8177 55.1743 95.7485 55.2838C95.0238 56.4362 94.2519 57.5893 93.4361 58.7399C92.62 59.8918 91.8341 60.8777 91.0787 61.6961C90.3216 62.5151 89.627 63.1052 88.992 63.4701C88.3587 63.8337 87.8587 63.8337 87.4956 63.4701L87.2237 62.9243C87.1624 62.864 87.1341 62.7415 87.1341 62.5594V62.1059C87.1341 61.8025 87.1624 61.5293 87.2237 61.2869C87.2843 61.0445 87.3452 60.8025 87.406 60.5589C87.4654 60.3184 87.5262 60.0746 87.5869 59.8317C88.0089 58.7399 88.4029 57.6343 88.7667 56.5114C89.1282 55.391 89.5222 54.2532 89.9442 53.1013C90.2467 52.0708 90.5792 51.086 90.943 50.146C91.3064 49.2063 91.6369 48.2815 91.9401 47.3714L94.8429 38.9137C94.9016 38.6108 94.8712 38.4442 94.7514 38.4139C94.63 38.3832 94.5097 38.3679 94.3883 38.3679H87.4061C87.1625 38.3679 86.9865 38.3893 86.8441 38.5323C86.7369 38.6403 86.7337 38.6386 86.6797 38.7316L82.28 51.3529C81.9572 51.9837 81.5663 52.6864 81.1025 53.4654C80.165 55.0417 79.1539 56.6028 78.0656 58.1481C76.977 59.6949 75.8893 61.0296 74.8009 62.15C73.7132 63.273 72.8665 63.8336 72.2615 63.8336C71.8387 63.8336 71.5669 63.6509 71.4454 63.2873C71.3233 62.9241 71.2952 62.5297 71.3559 62.1057C71.4148 61.3175 71.6118 60.3766 71.9449 59.2855C72.2755 58.194 72.7442 56.7842 73.3494 55.0565C73.9549 53.3286 74.7237 51.1615 75.6618 48.5543C76.6 45.9477 77.7325 42.7333 79.0626 38.9135C79.0626 38.6106 79.0179 38.444 78.9264 38.4138C78.8375 38.383 78.7296 38.3677 78.6098 38.3677H73.3494H71.9891C71.4454 38.3677 70.8872 38.383 70.3122 38.4138C69.7378 38.444 69.2078 38.4902 68.7249 38.5498C68.2414 38.6106 67.878 38.6723 67.6364 38.7314C67.6364 38.2464 67.5468 37.6852 67.364 37.0496C67.1836 36.412 66.9118 35.8073 66.5479 35.2301C66.1865 34.6546 65.7012 34.1705 65.0988 33.7754C64.4938 33.3809 63.7668 33.184 62.9225 33.184C61.7733 33.184 60.7745 33.4424 59.9297 33.9562C59.081 34.4725 58.5694 35.518 58.3871 37.0937V37.7312C58.3871 37.9736 58.4192 38.2463 58.4779 38.5496L58.659 39.0954C58.659 39.2179 58.7505 39.2763 58.9308 39.2763C59.1136 39.2763 59.3695 39.1717 59.7027 38.9589C60.0333 38.747 60.3524 38.6407 60.6542 38.6407C61.3795 38.6407 61.8624 38.8993 62.1066 39.4129C62.3457 39.9291 62.4674 40.4289 62.4674 40.9139C62.4674 41.2185 62.4533 41.4596 62.4232 41.6417C62.3925 41.8238 62.3625 42.0047 62.3317 42.1875C62.301 42.3696 62.2421 42.582 62.1508 42.8244C62.0593 43.0668 61.9237 43.4011 61.7428 43.8244L61.5617 44.1886V44.2798C61.5011 44.3406 61.471 44.4016 61.471 44.4619L58.3873 50.6452C58.2064 50.95 58.0401 51.2367 57.8892 51.5098C57.7395 51.7825 57.6033 52.0416 57.4812 52.2827H59.5667C60.1109 51.1912 60.6691 50.0854 61.2435 48.9637C61.8178 47.8421 62.3927 46.8574 62.967 46.007C63.5419 45.159 64.1144 44.4619 64.6904 43.9161C65.2636 43.3702 65.8237 43.0977 66.3679 43.0977C67.0925 43.0977 67.5312 43.3702 67.6835 43.9161C67.8337 44.4619 67.9092 44.9769 67.9092 45.4617C67.9092 46.5528 67.3952 48.6153 66.3679 51.6459L65.2795 54.9199C65.0378 55.5877 64.8266 56.2546 64.6445 56.9205C64.5222 57.5278 64.4028 58.2254 64.2824 59.0132C64.161 59.8019 64.1002 60.5908 64.1002 61.3773C64.1002 62.2867 64.2218 63.1827 64.4635 64.0602C64.7052 64.9396 65.1579 65.6219 65.8237 66.1069L65.9152 66.1979C66.2764 66.5616 66.7593 66.8052 67.3643 66.9253C67.9699 67.0471 68.5747 67.1074 69.1799 67.1074C70.8707 67.1074 72.4886 66.5769 74.0299 65.5161C75.573 64.4553 76.9615 63.1828 78.202 61.6963C78.8896 60.8711 79.5205 60.0108 80.1161 59.1291C80.0248 59.758 79.9188 60.3672 79.8788 61.0595C79.82 62.1208 79.9394 63.1053 80.2421 64.0153C80.2421 64.0761 80.2728 64.1672 80.3334 64.2885C80.3942 64.4105 80.4555 64.547 80.5138 64.6977C80.5751 64.849 80.6666 64.9856 80.7863 65.1069C81.0888 65.5926 81.452 65.9868 81.8747 66.289C82.1767 66.5321 82.4631 66.6982 82.7356 66.7887C83.0073 66.8803 83.2651 66.9568 83.5068 67.0164C83.7485 67.0779 84.0203 67.1074 84.3228 67.1074C85.5308 67.2287 86.6942 67.0619 87.8145 66.6072C88.9317 66.1524 89.9913 65.5161 90.9876 64.6977C91.9871 63.8793 92.9062 62.9392 93.7554 61.8775C94.3167 61.1726 94.8124 60.4508 95.3223 59.7314C95.3332 60.0562 95.3027 60.3554 95.3407 60.6956C95.432 61.514 95.6572 62.3187 96.0205 63.1052C96.3844 63.894 96.8978 64.6374 97.5617 65.334C98.228 66.0311 99.1042 66.5934 100.193 67.0164C100.676 67.1979 101.159 67.3486 101.643 67.4711C102.125 67.5917 102.7 67.6822 103.367 67.7437C105.965 67.9861 108.354 67.7437 110.53 67.0164C112.405 66.411 114.037 65.6221 115.428 64.6522C116.818 63.6824 117.935 62.7415 118.783 61.8332C119.267 61.3484 119.735 60.8026 120.189 60.1953C120.51 59.7646 120.76 59.437 120.976 59.159C120.902 59.962 120.922 60.733 121.049 61.4681C121.171 62.6815 121.638 63.8336 122.454 64.9244C123.27 66.0155 124.677 66.7126 126.673 67.016H126.854H127.125C127.306 66.9564 127.398 66.7743 127.398 66.4708C127.398 66.1674 127.456 65.4702 127.578 64.3787C127.7 63.2871 127.941 62.1667 128.305 61.0141C129.513 58.3474 130.693 55.9069 131.842 53.6923C132.988 51.4803 134.063 49.5999 135.059 48.0534C136.058 46.5078 136.964 45.3564 137.78 44.5978C138.596 43.8404 139.276 43.5832 139.82 43.8244C139.881 43.8859 140.002 43.9769 140.184 44.097C140.364 44.2195 140.486 44.5227 140.547 45.007C140.606 45.4932 140.531 46.2506 140.32 47.2808C140.106 48.3121 139.669 49.7679 139.004 51.6459C138.701 52.5554 138.339 53.738 137.916 55.1931C137.494 56.6478 137.191 57.9825 137.011 59.1945C136.828 60.3476 136.753 61.4386 136.783 62.4687C136.813 63.5006 137.069 64.3787 137.554 65.1065C137.855 65.5922 138.218 65.97 138.643 66.2431C139.065 66.5158 139.459 66.7126 139.82 66.8344C140.242 67.016 140.666 67.1071 141.091 67.1071C142.299 67.2284 143.462 67.0615 144.583 66.6068C145.7 66.1521 146.759 65.5158 147.756 64.6973C148.753 63.8789 149.69 62.9389 150.568 61.8772C151.057 61.2841 151.468 60.6744 151.912 60.0713C151.877 60.4086 151.811 60.7052 151.79 61.0591C151.732 62.1204 151.851 63.105 152.153 64.015C152.153 64.0758 152.184 64.1668 152.242 64.2881C152.303 64.4101 152.365 64.5467 152.425 64.6973C152.486 64.8487 152.576 64.9853 152.697 65.1065C153 65.5922 153.364 65.9865 153.786 66.2887C154.088 66.5317 154.374 66.6979 154.646 66.7884C154.918 66.88 155.177 66.9564 155.418 67.016C155.658 67.0775 155.929 67.1071 156.234 67.1071C157.442 67.2284 158.622 67.0615 159.771 66.6068C160.918 66.1521 162.022 65.5158 163.08 64.6973C164.137 63.8789 165.134 62.9389 166.072 61.8772C167.008 60.8171 167.899 59.7401 168.748 58.6494C170.62 56.0428 174.312 49.1733 175.945 45.7773L174.346 46.4099C172.732 49.889 171.527 51.0542 170.924 52.0549C170.319 53.056 169.592 54.1328 168.748 55.2834C167.899 56.4358 167.008 57.5889 166.072 58.7396C165.134 59.8914 164.227 60.8774 163.352 61.6958C162.474 62.5147 161.689 63.1048 160.994 63.4697C160.299 63.8334 159.77 63.8334 159.406 63.4697L159.135 62.9239C159.073 62.8636 159.043 62.7411 159.043 62.559V62.1055C159.043 61.8021 159.073 61.529 159.135 61.2866C159.193 61.0442 159.254 60.8021 159.316 60.5585C159.376 60.318 159.437 60.0742 159.498 59.8313L160.948 55.6476L169.292 31.637C171.224 31.7595 173.024 31.8654 174.688 31.9557C176.349 32.0463 177.816 32.1238 179.085 32.1828C185.312 32.4264 189.998 31.4869 193.14 29.3639C193.262 29.2426 193.443 29.0913 193.685 28.9086C193.926 28.7276 194.168 28.4854 194.411 28.1818L194.683 27.7265C194.803 27.4244 194.895 27.1352 194.955 26.8626C195.015 26.59 195.015 26.2718 194.955 25.9076C194.895 25.4226 194.742 25.0754 194.501 24.8624Z" fill="#133875"/>
<path d="M94.6561 22.5103C93.1725 22.274 91.1993 23.4173 91.1993 25.822H97.0597C97.0597 23.8135 96.0855 22.7386 94.6559 22.5103H94.6561Z" fill="white"/>
<path d="M94.7308 23.6451H93.8474C93.8474 23.6451 94.2499 20.8905 94.2694 20.5687C94.289 20.2462 94.6627 20.1803 94.6963 20.4258C94.7308 20.6714 94.7308 23.6451 94.7308 23.6451Z" fill="white"/>
<path d="M130.964 4.6358C131.428 4.37793 131.744 3.89626 131.744 3.3258C131.744 2.47854 130.215 1.4563 130.215 1.4563C130.215 1.4563 128.686 2.47837 128.686 3.3258C128.686 3.88514 128.992 4.35951 129.441 4.62103C129.555 4.68671 129.445 4.845 129.445 4.845C129.445 4.845 127.501 5.96994 127.501 7.01025C127.501 8.28289 128.717 8.89314 130.215 8.89314C131.716 8.89314 132.93 8.28289 132.93 7.01025C132.93 5.96594 130.973 4.84188 130.973 4.84188C130.973 4.84188 130.858 4.69487 130.964 4.6358Z" fill="white"/>
<path d="M130.666 0.522328C130.666 0.810773 130.464 1.04466 130.216 1.04466C129.967 1.04466 129.765 0.810773 129.765 0.522328C129.765 0.23371 129.966 0 130.216 0C130.464 0 130.666 0.23371 130.666 0.522328Z" fill="white"/>
<path d="M56.0766 30.7281C55.7436 28.122 55.0796 25.7126 54.0806 23.4979C53.0842 21.2846 51.7075 19.3592 49.9554 17.7224C48.2018 16.0857 45.9335 14.9036 43.1541 14.1757C42.8497 14.1156 42.5191 14.0544 42.156 13.9936C41.8528 13.9345 41.4894 13.8885 41.0674 13.857C40.6453 13.8275 40.1902 13.812 39.7071 13.812C38.8015 13.812 37.742 13.9032 36.5339 14.0853C35.3242 14.2662 34.0853 14.6304 32.8167 15.1769C31.546 15.7222 30.2912 16.4806 29.0531 17.4501C28.301 18.0377 27.5893 18.7366 26.9162 19.547C26.4787 20.0746 24.7749 22.2859 24.4725 22.8605C24.1706 23.4377 23.8677 24.0593 23.5674 24.7257C25.0781 24.3024 26.4376 24.0881 27.6482 24.0881C28.3121 24.0881 28.8863 24.1343 29.3699 24.2249C29.8527 24.3164 30.2465 24.4223 30.5491 24.5435C30.9122 24.1799 31.335 23.6648 31.8178 22.9972C32.3014 22.3314 32.8915 21.6786 33.5863 21.0422C34.2807 20.4054 35.1132 19.8454 36.0815 19.3592C37.0478 18.8749 38.2253 18.632 39.6179 18.632C41.7334 18.632 43.4715 19.163 44.8312 20.2238C46.192 21.2846 47.2498 22.6489 48.0067 24.3163C48.7621 25.9849 49.259 27.8174 49.5033 29.8186C49.7424 31.8197 49.8339 33.7609 49.775 35.6389C49.6528 37.9439 49.3505 40.4138 48.8676 43.0511C48.3822 45.6892 47.7184 48.3264 46.8717 50.9637C46.025 53.6018 44.9513 56.1331 43.6519 58.5575C42.3524 60.9837 40.842 63.1215 39.1184 64.9698C37.395 66.8195 35.4157 68.3031 33.1782 69.4261C30.9411 70.547 28.4318 71.109 25.6524 71.109C22.2663 71.109 19.59 70.1835 17.6271 68.3343C15.6613 66.486 14.3018 64.1371 13.5465 61.2864C12.7887 58.4369 12.5617 55.3288 12.8661 51.9649C13.1669 48.5992 13.8937 45.4165 15.0424 42.4157C16.1898 39.4129 17.7021 36.8071 19.5759 34.5936C21.4497 32.3809 23.5674 31.0007 25.9243 30.4556H26.9212C26.982 30.4556 27.2686 30.5164 27.7838 30.6377C28.2955 30.7597 28.8556 31.0469 29.4613 31.501C30.0639 31.9564 30.5797 32.6535 31.0021 33.5932C31.4242 34.5342 31.607 35.852 31.5463 37.5491C31.5463 37.9128 31.485 38.5946 31.3653 39.5957C31.2436 40.5964 31.0021 41.6275 30.6407 42.6883C30.2774 43.7491 29.7472 44.7041 29.0533 45.5533C28.3565 46.4026 27.4349 46.8259 26.2881 46.8259C25.3193 46.8259 24.6702 46.5847 24.3369 46.0985C24.0039 45.6143 23.8 45.0772 23.8393 44.7343C23.8786 44.3917 24.2007 43.8857 24.2007 43.6433C24.2007 43.22 23.959 43.0058 23.4761 43.0058C22.508 43.0058 21.7526 43.4612 21.2078 44.37C20.6642 45.2801 20.3918 46.1601 20.3918 47.008C20.331 47.371 20.3616 47.8417 20.4831 48.4184C20.6035 48.9945 20.8754 49.5394 21.2991 50.0553C21.7219 50.5701 22.3576 51.0096 23.2036 51.3733C24.0505 51.7369 25.1916 52.023 26.5844 52.023C28.941 52.023 30.8209 51.3886 32.273 50.3277C33.7223 49.2669 34.8713 48.0535 35.718 46.6895C36.5647 45.3253 37.1696 44.0071 37.5305 42.7336C37.8943 41.4598 38.6558 38.5389 38.166 35.0032C37.9567 33.4919 37.5305 32.0023 36.8058 30.5463C36.0812 29.0918 34.9928 27.8341 33.5419 26.7727C32.0902 25.7131 30.0963 25.1802 27.5567 25.1802C24.8362 25.1802 22.4018 25.849 20.2561 27.1818C18.11 28.5164 16.206 30.1983 14.5428 32.2294C12.8802 34.2612 11.4733 36.4584 10.3265 38.8233C9.35975 40.8113 8.63016 42.669 8.04974 44.4436C6.95388 42.3528 4.44389 41.5825 2.33465 42.7637C0.842376 43.5993 -0.201159 45.2004 0.0332596 47.1719C0.135135 48.0285 1.23394 49.4032 2.19587 49.3048C2.59107 49.2647 1.82042 47.9234 2.79898 47.0077C4.2715 45.6289 5.89926 46.902 6.41886 47.588C6.64947 47.8926 6.79553 48.3837 6.89428 48.9437C6.87419 49.0445 6.85495 49.1326 6.83416 49.2372C6.50359 50.9046 6.30642 52.7993 6.24578 54.9203C6.12554 57.9533 6.47275 60.7277 7.28879 63.2421C8.10484 65.7587 9.3296 67.9112 10.9615 69.6992C12.5941 71.4869 14.5875 72.8829 16.9466 73.8829C19.3039 74.8834 21.9936 75.3842 25.0166 75.3842C29.9745 75.3842 34.372 74.2612 38.2109 72.0191C42.0498 69.775 45.2845 66.8807 47.9152 63.3337C50.5443 59.787 52.5702 55.8297 53.9917 51.4647C55.4109 47.0991 56.2127 42.7948 56.3933 38.5502C56.5154 35.9442 56.4073 33.3359 56.0766 30.7288V30.7281Z" fill="#133875"/>
</g>
<defs>
<clipPath id="clip0_1347_2396">
<rect width="195" height="102" fill="white"/>
</clipPath>
</defs>
</svg>
