<svg width="214" height="101" viewBox="0 0 214 101" fill="none" xmlns="http://www.w3.org/2000/svg">
<path d="M60.6287 100.119L54.9472 86.8827H57.0555L60.8752 96.5015C61.1798 97.2718 61.44 97.9928 61.6452 98.6676C61.8714 97.9436 62.1348 97.2225 62.4359 96.5015L66.3995 86.8827H68.3847L62.6518 100.119H60.6289H60.6287ZM69.5415 93.6763C69.5415 91.4826 70.1987 89.7635 71.5095 88.5218C72.8205 87.2801 74.5113 86.661 76.5855 86.661C77.9442 86.661 79.1663 86.9536 80.258 87.5358C81.3465 88.1182 82.178 88.9317 82.7498 89.9761C83.3214 91.0174 83.6089 92.2005 83.6089 93.5223C83.6089 94.8626 83.3077 96.0641 82.7052 97.121C82.1028 98.181 81.2506 98.982 80.1485 99.5242C79.0429 100.07 77.8517 100.341 76.5753 100.341C75.1889 100.341 73.9534 100.039 72.8616 99.438C71.7731 98.8372 70.945 98.0176 70.3837 96.9762C69.8223 95.9378 69.5415 94.838 69.5415 93.6763ZM71.5542 93.7073C71.5542 95.3 72.0298 96.5542 72.9814 97.4692C73.9327 98.3842 75.1273 98.8432 76.565 98.8432C78.0298 98.8432 79.2313 98.3811 80.1794 97.4567C81.1241 96.5323 81.5964 95.2197 81.5964 93.5192C81.5964 92.4439 81.3943 91.5041 80.9904 90.7031C80.5867 89.9021 79.9945 89.2797 79.2176 88.8392C78.4372 88.3985 77.5644 88.1767 76.5958 88.1767C75.22 88.1767 74.0357 88.6018 73.0431 89.4522C72.0503 90.3026 71.5542 91.7198 71.5542 93.7071V93.7073ZM90.0566 100.119V94.5113L84.3886 86.8829H86.7297L89.6356 90.8882C90.1765 91.6306 90.6797 92.3733 91.1383 93.1157C91.5866 92.4225 92.1308 91.646 92.7639 90.7833L95.6117 86.8827H97.8809L92.0076 94.5112V100.119H90.0566V100.119ZM97.2006 100.119L102.841 86.8827H104.981L110.967 100.119H108.753L107.052 96.1074H100.86L99.2647 100.119H97.2007H97.2006ZM101.431 94.6838H106.442L104.908 91.0144C104.446 89.899 104.097 88.9778 103.854 88.2507C103.652 89.1134 103.382 89.9607 103.043 90.7988L101.431 94.684V94.6838ZM119.39 94.9242V93.3714H125.613V98.2764C124.658 98.9603 123.672 99.478 122.655 99.823C121.639 100.168 120.595 100.341 119.527 100.341C118.083 100.341 116.772 100.063 115.591 99.5056C114.413 98.951 113.52 98.1437 112.921 97.093C112.319 96.0393 112.018 94.8623 112.018 93.5652C112.018 92.2772 112.315 91.0757 112.914 89.9573C113.513 88.8419 114.372 88.0133 115.495 87.474C116.618 86.9317 117.912 86.6606 119.376 86.6606C120.438 86.6606 121.399 86.8147 122.258 87.1258C123.118 87.437 123.792 87.8683 124.278 88.4199C124.767 88.9744 125.137 89.6985 125.39 90.5889L123.634 91.0203C123.412 90.3486 123.138 89.8187 122.813 89.4305C122.484 89.0454 122.019 88.7373 121.41 88.5064C120.804 88.2753 120.13 88.1582 119.387 88.1582C118.5 88.1582 117.734 88.2814 117.083 88.5247C116.437 88.7681 115.916 89.0886 115.516 89.4891C115.119 89.8865 114.811 90.3241 114.592 90.7985C114.219 91.621 114.03 92.5085 114.03 93.4666C114.03 94.6498 114.257 95.6387 114.705 96.4368C115.157 97.2318 115.814 97.8234 116.673 98.2083C117.535 98.5936 118.449 98.7876 119.418 98.7876C120.26 98.7876 121.081 98.6398 121.882 98.347C122.683 98.0511 123.289 97.7401 123.703 97.4041V94.924H119.39L119.39 94.9242ZM128.525 100.119V86.8825H139.143V88.4353H130.476V92.5022H138.588V94.055H130.476V98.5656H139.492V100.118H128.525V100.119ZM141.545 95.8669L143.373 95.719C143.459 96.3846 143.661 96.9299 143.979 97.3581C144.297 97.7832 144.79 98.1283 145.458 98.3933C146.125 98.6553 146.878 98.7878 147.713 98.7878C148.456 98.7878 149.11 98.6892 149.678 98.4888C150.246 98.2887 150.667 98.0143 150.944 97.6663C151.221 97.3181 151.362 96.9391 151.362 96.5325C151.362 96.1197 151.228 95.7592 150.961 95.4479C150.694 95.1399 150.253 94.8809 149.637 94.6684C149.243 94.5329 148.37 94.3172 147.018 94.0245C145.666 93.7321 144.722 93.4575 144.181 93.1989C143.479 92.8663 142.959 92.4533 142.617 91.9636C142.271 91.4737 142.1 90.9221 142.1 90.3151C142.1 89.6433 142.312 89.0178 142.733 88.4387C143.154 87.8563 143.767 87.4157 144.578 87.1138C145.386 86.8119 146.286 86.661 147.275 86.661C148.364 86.661 149.325 86.8181 150.157 87.1355C150.989 87.4498 151.629 87.915 152.077 88.5312C152.526 89.1445 152.765 89.8407 152.799 90.6171L150.931 90.7465C150.831 89.9115 150.493 89.2799 149.914 88.8548C149.336 88.4266 148.48 88.2139 147.351 88.2139C146.173 88.2139 145.314 88.4079 144.777 88.7961C144.239 89.1845 143.969 89.6527 143.969 90.2012C143.969 90.6757 144.161 91.0668 144.541 91.375C144.917 91.6801 145.892 91.9974 147.474 92.3179C149.055 92.6413 150.14 92.9217 150.729 93.1622C151.581 93.5165 152.214 93.9632 152.622 94.5086C153.029 95.0508 153.231 95.6763 153.231 96.385C153.231 97.0906 153.009 97.7499 152.56 98.3723C152.112 98.9946 151.472 99.4784 150.633 99.8233C149.795 100.168 148.853 100.341 147.803 100.341C146.474 100.341 145.362 100.165 144.465 99.817C143.565 99.4688 142.863 98.9452 142.354 98.2427C141.84 97.5432 141.573 96.7514 141.546 95.867L141.545 95.8669Z" fill="white"/>
<path d="M190.511 59.859C189.963 57.5842 189.32 55.3016 188.91 53.0456C188.448 50.1231 188.064 47.148 188.531 44.3751C188.753 43.0695 189.219 41.484 190.026 41.0355C190.466 40.7849 190.72 40.7584 191.058 41.0029C191.401 41.2711 191.77 41.9047 191.807 42.4083C191.886 43.6269 191.339 45.1063 190.749 46.4579C190.181 47.8562 189.413 49.1934 188.671 50.5614C189.84 49.453 190.813 48.2032 191.747 46.9052C192.595 45.5639 193.471 44.1947 193.583 42.3709C193.611 41.9312 193.487 41.3519 193.304 40.961C193.129 40.5362 192.873 40.0949 192.434 39.7032C192.015 39.3121 191.358 38.9997 190.672 38.9708C189.988 38.9339 189.362 39.1294 188.863 39.4048C187.824 39.9443 187.299 40.9531 186.985 41.6753C186.634 42.4616 186.434 43.2667 186.279 44.0676C185.794 47.2902 186.338 50.3973 187.17 53.3681C187.719 55.2949 188.631 57.1055 189.306 58.9861C189.902 60.6465 190.825 63.166 191.165 64.9686C191.348 65.9426 191.584 67.3881 191.297 69.2858C191.141 70.3177 190.784 71.3172 190.319 72.2759L189.736 73.541L188.973 74.7177C188.521 75.5367 187.789 76.1746 187.179 76.8842C185.739 78.1171 184.148 79.2479 182.249 79.8496C178.563 81.2722 174.399 81.4307 170.359 81.3606C166.288 81.2493 162.217 80.7885 158.163 80.2316C149.079 78.8933 114.604 71.3153 84.2817 71.4231C60.518 71.5067 39.1214 78.9624 35.7174 80.1337C31.8442 81.4598 28.0826 83.0537 24.4791 84.8872C20.8935 86.7321 17.3963 88.8035 14.5027 91.4627C17.563 88.9688 21.1398 87.0772 24.7669 85.3648C28.421 83.6821 32.2122 82.245 36.1029 81.0774C43.8416 78.6313 51.873 76.9823 59.9867 75.9256C76.2175 73.7561 92.7316 73.6374 109.051 75.2307C117.223 75.936 125.362 76.9843 133.481 78.2052C141.606 79.3964 149.702 80.8316 157.917 81.7868C162.025 82.2553 166.163 82.6307 170.338 82.65C174.481 82.6209 178.795 82.3896 182.693 80.7656C184.678 80.0495 186.354 78.7704 187.812 77.4018C188.431 76.6264 189.164 75.9206 189.601 75.0495L190.338 73.7942L190.881 72.4674C191.694 70.5994 191.966 68.6152 191.848 66.6484C191.754 65.0691 190.618 60.2999 190.512 59.8592L190.511 59.859Z" fill="white"/>
<path d="M100.17 35.6855C101.165 35.6855 102.159 35.1486 103.152 34.0752L107.228 29.6916C108.221 28.6783 108.585 27.7836 108.32 27.0076C108.056 26.2334 107.228 25.8447 105.835 25.8447H100.269C98.8767 25.8447 98.049 25.9941 97.7846 26.2914C97.5198 26.5912 97.4195 27.1867 97.4861 28.0814L98.1827 34.0752C98.5123 35.1486 99.1752 35.6855 100.17 35.6855Z" fill="white"/>
<path d="M114.482 52.9977C114.88 52.0135 115.209 51.2231 115.476 50.6267C115.872 49.7919 116.371 48.8078 116.967 47.674C117.564 46.542 118.242 45.4689 119.005 44.4532C119.766 43.4401 120.594 42.5605 121.489 41.814C122.383 41.0687 123.359 40.6663 124.421 40.6063H124.619C125.018 40.6063 125.35 40.7268 125.614 40.9641C125.816 41.1825 125.879 41.4557 126.012 41.9035C126.144 42.3509 126.144 43.0529 126.012 44.0066C125.678 45.9156 125.033 47.5258 124.074 48.8375C123.113 50.1498 122.003 51.2534 120.744 52.1473C119.484 53.042 118.209 53.7581 116.916 54.295C115.625 54.8314 114.516 55.2201 113.588 55.4573C113.786 54.8021 114.083 53.9815 114.482 52.9977H114.482ZM166.953 34.2142C166.651 34.9 166.166 35.5205 165.487 35.8897C164.877 36.2468 164.013 36.4617 163.34 36.1082C162.295 35.5579 162.258 34.0077 162.482 33.2602C162.767 32.3045 163.822 30.5818 166.208 29.8819C166.543 29.7832 166.914 29.7313 167.283 29.6784C167.569 31.2153 167.521 32.7736 166.953 34.2142H166.953ZM213.173 24.4577C212.908 24.2494 212.677 24.0861 212.478 23.9649C212.081 23.907 211.816 23.9959 211.682 24.2331C211.086 25.0699 209.927 25.8305 208.205 26.5158C206.481 27.2016 203.765 27.4554 200.054 27.2756C198.795 27.217 197.471 27.1568 196.08 27.0965C194.887 27.0384 193.51 26.9626 191.955 26.8731C190.398 26.784 188.856 26.6503 187.333 26.4705L188.627 23.0711C188.758 22.8332 188.74 22.6831 188.575 22.6231C188.409 22.5652 188.293 22.5335 188.228 22.5335H180.476C180.01 22.594 179.779 22.7436 179.779 22.9816L178.784 25.5753C174.604 25.5148 170.352 25.7951 167.346 26.171C167.155 25.7218 166.99 25.2635 166.756 24.8314C165.964 23.3446 164.809 21.9506 163.579 20.7673C162.355 19.5603 161.053 18.4331 159.703 17.3484C156.959 15.2329 154.016 13.282 150.698 11.8176C149.04 11.0942 146.714 10.1124 144.817 9.79819C142.927 9.44042 142.027 9.57187 140.242 10.0071C136.608 10.8829 132.783 12.8581 129.719 14.5791C126.69 16.3585 123.842 18.3555 121.201 20.5541C118.639 22.8041 116.128 25.2242 114.566 28.137C116.59 25.4899 119.237 23.3446 121.984 21.3642C124.72 19.3666 127.645 17.5797 130.696 16.0319C133.72 14.4623 136.914 13.0925 140.174 12.3297C143.4 11.4703 146.605 12.299 149.734 13.6193C152.817 14.9666 155.751 16.7125 158.502 18.6579C159.889 19.6184 161.242 20.63 162.51 21.7105C163.815 22.7735 164.884 23.9308 165.656 25.3321C165.837 25.6577 166.009 25.9919 166.171 26.3333C165.491 26.4367 164.876 26.5421 164.416 26.6498C162.22 27.1613 160.244 27.8491 159.495 29.8677C158.632 32.2011 159.18 34.698 161.824 36.3015C161.918 36.3584 162.629 36.7428 163.04 36.8434C164.005 37.0775 165.004 36.9104 165.875 36.4808C166.748 36.0466 167.368 35.3005 167.752 34.5221C168.515 32.9404 168.569 31.217 168.354 29.582C171.783 29.4301 175.874 30.5861 176.798 30.5861L168.051 53.1323L167.958 53.3418C166.937 54.8678 165.852 56.3534 164.673 57.7843C163.347 59.3945 162.072 60.7074 160.848 61.7206C159.62 62.7359 158.709 62.9737 158.114 62.4373L157.815 61.9004V61.5414C157.682 61.065 157.682 60.5445 157.815 59.976C157.949 59.4105 158.08 59.0082 158.214 58.7683C158.612 57.4573 159.24 55.8165 160.103 53.8473C160.961 51.8793 161.725 50.0319 162.388 48.3013C162.851 47.2875 163.149 46.2137 163.282 45.0805C163.414 43.9474 163.347 42.8741 163.085 41.8598C162.951 41.2034 162.602 40.4585 162.042 39.6224C161.476 38.7883 160.532 38.2211 159.208 37.9226C158.08 37.6847 157.086 37.6544 156.227 37.8324C155.893 37.8922 155.613 37.9529 155.381 38.0122C155.148 38.072 154.868 38.1611 154.535 38.2804C154.271 38.4002 154.104 38.4596 154.039 38.4596C152.514 39.2349 151.022 40.4275 149.567 42.0381C148.108 43.6483 146.75 45.3183 145.491 47.0484C146.22 45.1404 146.884 43.4109 147.48 41.8596C148.076 40.3082 148.539 39.1163 148.871 38.2804C148.935 38.0432 148.904 37.8922 148.77 37.8324C148.637 37.775 148.506 37.7435 148.374 37.7435H140.72C140.455 37.7435 140.273 37.8033 140.175 37.9226C140.075 38.0432 140.026 38.132 140.026 38.1914L134.729 51.7439C134.461 52.1446 134.215 52.5253 133.913 52.9533C132.819 54.504 131.677 55.9944 130.485 57.4265C130.151 57.7843 129.573 58.3661 128.745 59.1711C127.915 59.9762 127.038 60.6784 126.11 61.2734C125.38 61.7524 124.454 62.2286 123.329 62.7057C122.399 63.0634 121.373 63.3467 120.247 63.5544C119.119 63.7651 117.962 63.7492 116.767 63.5108C116.237 63.3914 115.806 63.2426 115.476 63.0634C115.209 63.0041 114.912 62.8257 114.581 62.5265C113.918 61.9896 113.503 61.2893 113.338 60.4242C113.173 59.5598 113.122 58.6796 113.189 57.7843C116.633 57.4865 119.484 56.8903 121.738 55.9944C123.99 55.1002 125.797 54.0871 127.153 52.9533C128.51 51.8202 129.49 50.6429 130.086 49.4189C130.683 48.1969 131.081 47.1374 131.279 46.2436C131.477 45.3489 131.578 44.6929 131.578 44.2749C131.642 43.5003 131.559 42.9536 131.428 42.3967C131.313 41.9075 131.145 41.5904 131.081 41.4118C130.683 40.3985 130.135 39.6376 129.441 39.1303C128.745 38.6236 128.033 38.2514 127.302 38.0122C126.509 37.775 125.647 37.6544 124.72 37.6544C121.473 37.5951 118.309 38.5038 115.227 40.3827C112.145 42.2623 109.513 45.1694 107.326 49.1064C106.286 50.8129 105.571 52.4667 105.153 54.0712C105.08 54.1777 105.016 54.2765 104.941 54.3842C104.146 55.5178 103.3 56.6522 102.406 57.7841C101.512 58.9172 100.65 59.8871 99.8224 60.6922C98.9926 61.4978 98.2313 62.0783 97.5353 62.4373C96.8413 62.7951 96.2932 62.7951 95.8952 62.4373L95.5973 61.9004C95.5301 61.8411 95.4991 61.7206 95.4991 61.5414V61.0953C95.4991 60.7968 95.5301 60.5281 95.5973 60.2897C95.6638 60.0512 95.7304 59.8131 95.7971 59.5734C95.8622 59.3369 95.9288 59.097 95.9953 58.8581C96.4579 57.7841 96.8897 56.6964 97.2885 55.5919C97.6846 54.4897 98.1164 53.3704 98.579 52.2373C98.9105 51.2234 99.2749 50.2547 99.6737 49.33C100.072 48.4056 100.434 47.4959 100.767 46.6005L103.948 38.2804C104.012 37.9825 103.979 37.8185 103.848 37.7888C103.715 37.7585 103.583 37.7435 103.45 37.7435H95.7972C95.5303 37.7435 95.3373 37.7645 95.1812 37.9052C95.0637 38.0115 95.0603 38.0098 95.001 38.1013L90.1789 50.5173C89.8252 51.1378 89.3968 51.8291 88.8884 52.5954C87.8609 54.1461 86.7527 55.6818 85.56 57.2019C84.3669 58.7236 83.1748 60.0365 81.9819 61.1387C80.7897 62.2435 79.8617 62.7949 79.1986 62.7949C78.7353 62.7949 78.4373 62.6152 78.3042 62.2575C78.1704 61.9002 78.1396 61.5122 78.2061 61.0951C78.2706 60.3197 78.4865 59.3941 78.8517 58.3208C79.214 57.247 79.7277 55.8602 80.391 54.1606C81.0546 52.4608 81.8972 50.3289 82.9254 47.7642C83.9537 45.2 85.1948 42.0379 86.6526 38.2802C86.6526 37.9823 86.6036 37.8184 86.5034 37.7886C86.406 37.7584 86.2877 37.7433 86.1564 37.7433H80.391H78.9001C78.3042 37.7433 77.6924 37.7584 77.0622 37.7886C76.4327 37.8184 75.8518 37.8638 75.3226 37.9225C74.7926 37.9823 74.3944 38.043 74.1295 38.1011C74.1295 37.624 74.0313 37.0719 73.831 36.4466C73.6333 35.8195 73.3353 35.2246 72.9366 34.6568C72.5405 34.0906 72.0086 33.6144 71.3483 33.2257C70.6852 32.8377 69.8884 32.644 68.9631 32.644C67.7035 32.644 66.6088 32.8982 65.6829 33.4036C64.7528 33.9115 64.1921 34.94 63.9923 36.49V37.1172C63.9923 37.3557 64.0274 37.6238 64.0918 37.9223L64.2902 38.4592C64.2902 38.5797 64.3905 38.6372 64.5882 38.6372C64.7885 38.6372 65.069 38.5343 65.4341 38.3249C65.7965 38.1165 66.1462 38.0119 66.477 38.0119C67.2719 38.0119 67.8011 38.2662 68.0689 38.7715C68.3309 39.2794 68.4642 39.771 68.4642 40.248C68.4642 40.5477 68.4489 40.785 68.4158 40.9641C68.3822 41.1432 68.3494 41.3212 68.3156 41.501C68.2819 41.6801 68.2174 41.889 68.1173 42.1275C68.017 42.3659 67.8684 42.6948 67.6701 43.1112L67.4717 43.4695V43.5592C67.4052 43.6191 67.3722 43.6791 67.3722 43.7384L63.9925 49.8211C63.7942 50.1209 63.6119 50.403 63.4465 50.6717C63.2825 50.9399 63.1332 51.1947 62.9993 51.432H65.2851C65.8815 50.3582 66.4934 49.2703 67.1228 48.167C67.7523 47.0636 68.3824 46.0949 69.0119 45.2583C69.6419 44.4242 70.2693 43.7384 70.9007 43.2015C71.5289 42.6644 72.1428 42.3964 72.7393 42.3964C73.5334 42.3964 74.0142 42.6644 74.1811 43.2015C74.3458 43.7384 74.4285 44.245 74.4285 44.7219C74.4285 45.7952 73.8651 47.8242 72.7393 50.8055L71.5464 54.0263C71.2815 54.6832 71.05 55.3392 70.8504 55.9942C70.7164 56.5917 70.5855 57.278 70.4535 58.053C70.3204 58.8288 70.2538 59.6049 70.2538 60.3785C70.2538 61.2732 70.3871 62.1546 70.652 63.0178C70.9169 63.8829 71.4131 64.5541 72.1428 65.0312L72.2431 65.1208C72.639 65.4786 73.1682 65.7182 73.8313 65.8363C74.495 65.9562 75.1579 66.0155 75.8212 66.0155C77.6744 66.0155 79.4476 65.4936 81.1368 64.4501C82.828 63.4065 84.3498 62.1547 85.7094 60.6924C86.4631 59.8806 87.1545 59.0343 87.8074 58.167C87.7073 58.7856 87.5911 59.3849 87.5472 60.0659C87.4828 61.11 87.6137 62.0785 87.9454 62.9737C87.9454 63.0335 87.979 63.1231 88.0455 63.2424C88.1121 63.3624 88.1794 63.4967 88.2432 63.6449C88.3104 63.7938 88.4106 63.9282 88.5419 64.0475C88.8734 64.5253 89.2714 64.9131 89.7348 65.2104C90.0657 65.4495 90.3796 65.6129 90.6783 65.702C90.9761 65.7921 91.2586 65.8673 91.5235 65.9259C91.7884 65.9864 92.0864 66.0155 92.4179 66.0155C93.7419 66.1348 95.017 65.9707 96.2448 65.5233C97.4692 65.076 98.6306 64.4501 99.7225 63.6449C100.818 62.8398 101.825 61.9151 102.756 60.8707C103.371 60.1772 103.915 59.4671 104.473 58.7595C104.485 59.0789 104.452 59.3733 104.494 59.708C104.594 60.5131 104.84 61.3047 105.239 62.0783C105.637 62.8544 106.2 63.5856 106.928 64.2709C107.658 64.9567 108.618 65.5098 109.812 65.9259C110.341 66.1045 110.87 66.2527 111.4 66.3732C111.93 66.4919 112.56 66.5809 113.29 66.6414C116.138 66.8799 118.756 66.6414 121.142 65.9259C123.196 65.3304 124.985 64.5543 126.509 63.6002C128.033 62.6462 129.257 61.7206 130.186 60.8271C130.716 60.3502 131.23 59.8133 131.727 59.2158C132.079 58.7921 132.353 58.4699 132.59 58.1964C132.509 58.9863 132.531 59.7447 132.67 60.4679C132.804 61.6616 133.315 62.7949 134.21 63.868C135.104 64.9413 136.646 65.6271 138.834 65.9256H139.032H139.33C139.527 65.8669 139.628 65.6878 139.628 65.3892C139.628 65.0907 139.692 64.4049 139.825 63.3311C139.96 62.2573 140.224 61.1551 140.622 60.0213C141.946 57.398 143.239 54.9972 144.499 52.8186C145.756 50.6426 146.933 48.7927 148.025 47.2714C149.12 45.751 150.112 44.6183 151.007 43.872C151.901 43.1269 152.647 42.874 153.243 43.1112C153.31 43.1717 153.443 43.2613 153.641 43.3794C153.839 43.4999 153.973 43.7982 154.039 44.2746C154.104 44.7529 154.022 45.498 153.791 46.5114C153.557 47.5259 153.078 48.958 152.349 50.8055C152.017 51.7002 151.619 52.8636 151.156 54.295C150.693 55.726 150.361 57.039 150.164 58.2313C149.964 59.3656 149.881 60.4389 149.914 61.4522C149.948 62.4674 150.228 63.3311 150.76 64.0472C151.089 64.5249 151.488 64.8965 151.953 65.1652C152.416 65.4334 152.847 65.6271 153.243 65.7469C153.706 65.9256 154.171 66.0151 154.636 66.0151C155.96 66.1344 157.235 65.9703 158.463 65.523C159.687 65.0757 160.848 64.4497 161.941 63.6446C163.033 62.8395 164.061 61.9147 165.023 60.8703C165.559 60.2869 166.01 59.6871 166.496 59.0938C166.458 59.4256 166.385 59.7174 166.362 60.0656C166.298 61.1096 166.429 62.0782 166.76 62.9733C166.76 63.0332 166.794 63.1227 166.858 63.2421C166.925 63.362 166.992 63.4964 167.059 63.6446C167.125 63.7935 167.223 63.9278 167.357 64.0472C167.688 64.5249 168.087 64.9128 168.549 65.21C168.88 65.4492 169.194 65.6126 169.493 65.7016C169.791 65.7917 170.074 65.8669 170.338 65.9256C170.601 65.9861 170.899 66.0151 171.233 66.0151C172.557 66.1344 173.85 65.9703 175.109 65.523C176.366 65.0757 177.576 64.4497 178.736 63.6446C179.895 62.8395 180.988 61.9147 182.016 60.8703C183.041 59.8275 184.018 58.768 184.948 57.695C187 55.1308 191.047 48.3731 192.836 45.0323L191.084 45.6547C189.315 49.0772 187.994 50.2235 187.333 51.2079C186.67 52.1926 185.874 53.2519 184.948 54.3839C184.018 55.5175 183.041 56.6518 182.015 57.7838C180.987 58.9169 179.993 59.8868 179.034 60.6919C178.072 61.4975 177.212 62.078 176.45 62.4369C175.688 62.7947 175.109 62.7947 174.71 62.4369L174.412 61.9C174.345 61.8407 174.312 61.7202 174.312 61.5411V61.0949C174.312 60.7965 174.345 60.5278 174.412 60.2893C174.476 60.0509 174.543 59.8128 174.61 59.5731C174.677 59.3365 174.744 59.0967 174.81 58.8577L176.399 54.7421L185.544 31.1222C187.662 31.2427 189.634 31.3468 191.459 31.4357C193.279 31.5247 194.887 31.601 196.278 31.6591C203.103 31.8987 208.238 30.9745 211.682 28.886C211.816 28.7667 212.014 28.6178 212.279 28.4381C212.543 28.26 212.809 28.0217 213.075 27.7231L213.373 27.2753C213.505 26.978 213.605 26.6936 213.672 26.4254C213.737 26.1572 213.737 25.8442 213.672 25.4859C213.605 25.0088 213.438 24.667 213.173 24.4574V24.4577Z" fill="white"/>
<path d="M103.743 22.1442C102.117 21.9117 99.9545 23.0365 99.9545 25.402H106.378C106.378 23.4262 105.31 22.3688 103.743 22.1442H103.743Z" fill="white"/>
<path d="M103.825 23.2605H102.857C102.857 23.2605 103.298 20.5507 103.319 20.2341C103.341 19.9168 103.75 19.8521 103.787 20.0936C103.825 20.3351 103.825 23.2605 103.825 23.2605Z" fill="white"/>
<path d="M143.537 4.56039C144.045 4.30672 144.392 3.83289 144.392 3.27171C144.392 2.43823 142.716 1.43262 142.716 1.43262C142.716 1.43262 141.041 2.43806 141.041 3.27171C141.041 3.82195 141.376 4.2886 141.868 4.54586C141.992 4.61047 141.872 4.76619 141.872 4.76619C141.872 4.76619 139.742 5.87283 139.742 6.89621C139.742 8.14814 141.074 8.74847 142.716 8.74847C144.361 8.74847 145.692 8.14814 145.692 6.89621C145.692 5.86889 143.547 4.76312 143.547 4.76312C143.547 4.76312 143.42 4.6185 143.537 4.56039Z" fill="white"/>
<path d="M143.21 0.513831C143.21 0.797583 142.989 1.02766 142.717 1.02766C142.444 1.02766 142.223 0.797583 142.223 0.513831C142.223 0.229908 142.444 0 142.717 0C142.989 0 143.21 0.229908 143.21 0.513831Z" fill="white"/>
<path d="M61.4599 30.2283C61.0949 27.6646 60.3672 25.2944 59.2723 23.1157C58.1803 20.9385 56.6714 19.0443 54.751 17.4341C52.8291 15.8241 50.3431 14.6612 47.2968 13.9452C46.9632 13.886 46.6009 13.8259 46.2028 13.766C45.8705 13.7079 45.4723 13.6626 45.0098 13.6317C44.5472 13.6026 44.0483 13.5874 43.5189 13.5874C42.5264 13.5874 41.3652 13.6771 40.041 13.8563C38.7152 14.0342 37.3573 14.3925 35.9669 14.9301C34.5743 15.4665 33.1991 16.2126 31.8421 17.1663C31.0178 17.7444 30.2377 18.4319 29.5 19.2291C29.0205 19.7481 27.1531 21.9234 26.8217 22.4887C26.4908 23.0565 26.1588 23.668 25.8297 24.3235C27.4854 23.9071 28.9755 23.6963 30.3023 23.6963C31.0299 23.6963 31.6592 23.7418 32.1892 23.8309C32.7184 23.9209 33.1501 24.025 33.4816 24.1444C33.8796 23.7866 34.343 23.2799 34.8722 22.6232C35.4022 21.9682 36.049 21.326 36.8104 20.7C37.5715 20.0735 38.4839 19.5226 39.5452 19.0443C40.6043 18.5679 41.8948 18.329 43.4211 18.329C45.7397 18.329 47.6447 18.8513 49.135 19.8949C50.6264 20.9385 51.7857 22.2805 52.6153 23.9208C53.4432 25.5623 53.9878 27.3649 54.2556 29.3336C54.5176 31.3021 54.6179 33.2118 54.5533 35.0592C54.4195 37.3267 54.0881 39.7564 53.5589 42.3508C53.0268 44.9459 52.2993 47.5402 51.3713 50.1347C50.4433 52.7298 49.2666 55.22 47.8424 57.6049C46.4182 59.9917 44.7627 62.0947 42.8737 63.9129C40.9848 65.7325 38.8155 67.1919 36.3632 68.2967C33.9113 69.3994 31.1611 69.9522 28.1149 69.9522C24.4037 69.9522 21.4704 69.0418 19.3191 67.2227C17.1646 65.4045 15.6745 63.0938 14.8468 60.2894C14.0162 57.4863 13.7674 54.4287 14.1011 51.1196C14.4307 47.8086 15.2273 44.6778 16.4863 41.7257C17.7438 38.7718 19.4013 36.2084 21.455 34.0309C23.5087 31.8542 25.8298 30.4965 28.4128 29.9602H29.5055C29.5721 29.9602 29.8862 30.0201 30.451 30.1394C31.0117 30.2594 31.6256 30.5419 32.2895 30.9886C32.9499 31.4366 33.5152 32.1224 33.9782 33.0468C34.4408 33.9724 34.6411 35.2688 34.5746 36.9383C34.5746 37.2961 34.5074 37.9668 34.3762 38.9516C34.2429 39.936 33.9782 40.9503 33.5821 41.9939C33.1839 43.0375 32.6028 43.9769 31.8423 44.8123C31.0785 45.6478 30.0685 46.0642 28.8116 46.0642C27.7497 46.0642 27.0384 45.8269 26.6731 45.3487C26.3081 44.8723 26.0846 44.3439 26.1277 44.0067C26.1708 43.6696 26.5238 43.1718 26.5238 42.9334C26.5238 42.517 26.2589 42.3062 25.7297 42.3062C24.6686 42.3062 23.8406 42.7542 23.2436 43.6482C22.6477 44.5436 22.3492 45.4092 22.3492 46.2433C22.2826 46.6004 22.3162 47.0635 22.4493 47.6308C22.5813 48.1975 22.8792 48.7335 23.3437 49.241C23.807 49.7475 24.5037 50.1798 25.431 50.5376C26.3592 50.8953 27.6098 51.1767 29.1363 51.1767C31.7192 51.1767 33.7796 50.5526 35.371 49.5091C36.9595 48.4655 38.2188 47.2719 39.1469 45.93C40.0749 44.588 40.7378 43.2913 41.1333 42.0385C41.5321 40.7854 42.3667 37.912 41.8298 34.4338C41.6004 32.9472 41.1333 31.4817 40.339 30.0495C39.5449 28.6186 38.352 27.3813 36.7618 26.3373C35.1707 25.2949 32.9854 24.7707 30.202 24.7707C27.2203 24.7707 24.5522 25.4286 22.2005 26.7397C19.8484 28.0526 17.7616 29.7071 15.9387 31.7052C14.1165 33.7039 12.5745 35.8654 11.3177 38.1918C10.2581 40.1475 9.45843 41.9749 8.82229 43.7207C7.62122 41.6638 4.87026 40.9061 2.55852 42.0681C0.922986 42.8901 -0.220732 44.4651 0.0361912 46.4045C0.147848 47.2472 1.35214 48.5995 2.40642 48.5028C2.83956 48.4633 1.99492 47.1438 3.06743 46.243C4.68132 44.8866 6.46535 46.1391 7.03484 46.8139C7.28758 47.1136 7.44766 47.5966 7.5559 48.1476C7.53387 48.2467 7.5128 48.3334 7.49001 48.4363C7.1277 50.0766 6.9116 51.9404 6.84514 54.0269C6.71335 57.0105 7.09389 59.7399 7.98828 62.2133C8.88267 64.6889 10.225 66.8065 12.0136 68.5654C13.803 70.324 15.9877 71.6973 18.5732 72.681C21.1569 73.6653 24.1048 74.1579 27.418 74.1579C32.8519 74.1579 37.6716 73.0531 41.879 70.8476C46.0864 68.6399 49.6317 65.7927 52.515 62.3034C55.3965 58.8144 57.6169 54.9215 59.1749 50.6275C60.7303 46.3329 61.6091 42.0987 61.807 37.9231C61.9409 35.3596 61.8224 32.7937 61.4599 30.229V30.2283Z" fill="white"/>
</svg>
