<svg width="19" height="21" viewBox="0 0 19 21" fill="none" xmlns="http://www.w3.org/2000/svg">
<path d="M18.5276 15.5903C18.3641 16.9115 17.754 18.1242 16.8113 19.0019C15.8686 19.8797 14.6576 20.3624 13.4047 20.36C6.12549 20.36 0.203133 14.0615 0.203133 6.32003C0.200887 4.98749 0.654816 3.69964 1.48014 2.69703C2.30546 1.69441 3.44573 1.04558 4.68799 0.871732C5.00212 0.830939 5.32024 0.899288 5.59485 1.06657C5.86945 1.23386 6.08583 1.49112 6.21166 1.79993L8.14789 6.39706V6.40876C8.24423 6.64515 8.28402 6.90324 8.2637 7.15997C8.24338 7.41671 8.16359 7.66409 8.03146 7.88003C8.01496 7.90636 7.99754 7.93073 7.9792 7.95511L6.07048 10.3614C6.75714 11.8454 8.21665 13.3839 9.63031 14.1161L11.8617 12.0969C11.8836 12.0773 11.9066 12.0591 11.9305 12.0423C12.1334 11.8984 12.3668 11.8106 12.6096 11.7867C12.8524 11.7629 13.097 11.8038 13.3212 11.9058L13.3332 11.9117L17.6521 13.9699C17.943 14.1032 18.1854 14.3331 18.3433 14.6252C18.5011 14.9173 18.5657 15.2559 18.5276 15.5903Z" fill="white"/>
</svg>
