<svg width="54" height="54" viewBox="0 0 54 54" fill="none" xmlns="http://www.w3.org/2000/svg">
<circle cx="27" cy="27" r="27" fill="#F69F00"/>
<path d="M24 31.17L20.53 27.7C20.343 27.513 20.0894 27.4079 19.825 27.4079C19.5606 27.4079 19.307 27.513 19.12 27.7C18.933 27.8869 18.828 28.1405 18.828 28.405C18.828 28.5359 18.8538 28.6655 18.9039 28.7865C18.954 28.9075 19.0274 29.0174 19.12 29.11L23.3 33.29C23.69 33.68 24.32 33.68 24.71 33.29L35.29 22.71C35.477 22.523 35.582 22.2694 35.582 22.005C35.582 21.7405 35.477 21.4869 35.29 21.3C35.103 21.113 34.8494 21.0079 34.585 21.0079C34.3206 21.0079 34.067 21.113 33.88 21.3L24 31.17Z" fill="white"/>
</svg>
