<svg width="195" height="102" viewBox="0 0 195 102" fill="none" xmlns="http://www.w3.org/2000/svg">
<g clip-path="url(#clip0_343_19)">
<path d="M55.3182 101.775L50.1343 88.3195H52.058L55.5431 98.0974C55.821 98.8804 56.0583 99.6133 56.2456 100.299C56.452 99.5633 56.6923 98.8303 56.9671 98.0974L60.5835 88.3195H62.3947L57.1641 101.775H55.3183H55.3182ZM63.4502 95.2255C63.4502 92.9954 64.0499 91.2479 65.2459 89.9857C66.442 88.7235 67.9847 88.0941 69.8772 88.0941C71.1169 88.0941 72.232 88.3916 73.228 88.9834C74.2212 89.5754 74.9799 90.4024 75.5015 91.464C76.023 92.5226 76.2853 93.7252 76.2853 95.0689C76.2853 96.4314 76.0106 97.6527 75.4608 98.7271C74.9112 99.8046 74.1337 100.619 73.1281 101.17C72.1194 101.725 71.0325 102 69.8679 102C68.6029 102 67.4757 101.693 66.4795 101.082C65.4863 100.472 64.7308 99.6385 64.2186 98.5799C63.7065 97.5243 63.4502 96.4064 63.4502 95.2255ZM65.2866 95.2569C65.2866 96.876 65.7206 98.1509 66.5888 99.0811C67.4568 100.011 68.5468 100.478 69.8585 100.478C71.195 100.478 72.2912 100.008 73.1563 99.0684C74.0183 98.1287 74.4492 96.7944 74.4492 95.0658C74.4492 93.9726 74.2648 93.0173 73.8963 92.203C73.5279 91.3888 72.9876 90.7561 72.2788 90.3083C71.5667 89.8604 70.7704 89.6348 69.8866 89.6348C68.6313 89.6348 67.5507 90.067 66.6451 90.9315C65.7393 91.7959 65.2866 93.2366 65.2866 95.2567V95.2569ZM82.1683 101.775V96.0743L76.9967 88.3196H79.1328L81.7842 92.3912C82.2777 93.1459 82.7368 93.9009 83.1552 94.6555C83.5643 93.9509 84.0608 93.1615 84.6385 92.2845L87.2368 88.3195H89.3073L83.9484 96.0741V101.774H82.1683V101.775ZM88.6865 101.775L93.8331 88.3195H95.785L101.247 101.775H99.2266L97.6746 97.6967H92.0252L90.5698 101.775H88.6867H88.6865ZM92.5463 96.2496H97.1183L95.7192 92.5195C95.2977 91.3857 94.979 90.4493 94.7574 89.7101C94.5731 90.5871 94.3265 91.4484 94.0173 92.3004L92.5463 96.2498V96.2496ZM108.932 96.4939V94.9155H114.61V99.9016C113.739 100.597 112.839 101.123 111.912 101.474C110.984 101.825 110.032 102 109.057 102C107.74 102 106.543 101.718 105.466 101.151C104.392 100.587 103.577 99.7667 103.03 98.6986C102.48 97.6275 102.206 96.431 102.206 95.1125C102.206 93.8032 102.477 92.5818 103.024 91.4449C103.57 90.3111 104.354 89.4687 105.379 88.9205C106.403 88.3693 107.583 88.0938 108.92 88.0938C109.888 88.0938 110.765 88.2503 111.549 88.5666C112.333 88.883 112.949 89.3214 113.392 89.8821C113.839 90.4458 114.176 91.1818 114.407 92.087L112.805 92.5255C112.602 91.8427 112.352 91.304 112.055 90.9094C111.756 90.5179 111.331 90.2048 110.775 89.97C110.222 89.7351 109.607 89.6161 108.929 89.6161C108.121 89.6161 107.421 89.7414 106.828 89.9886C106.238 90.2361 105.763 90.5619 105.397 90.969C105.035 91.373 104.754 91.8178 104.554 92.3C104.214 93.1361 104.042 94.0383 104.042 95.0123C104.042 96.215 104.249 97.2202 104.657 98.0315C105.07 98.8397 105.669 99.4411 106.453 99.8324C107.24 100.224 108.074 100.421 108.958 100.421C109.726 100.421 110.475 100.271 111.206 99.9733C111.937 99.6726 112.49 99.3565 112.867 99.0149V96.4937H108.933L108.932 96.4939ZM117.267 101.774V88.3193H126.955V89.8977H119.047V94.0319H126.449V95.6103H119.047V100.196H127.273V101.774H117.267V101.774ZM129.147 97.4522L130.815 97.3019C130.893 97.9785 131.077 98.5328 131.367 98.9681C131.658 99.4003 132.107 99.7511 132.716 100.02C133.325 100.287 134.012 100.421 134.774 100.421C135.452 100.421 136.049 100.321 136.567 100.118C137.085 99.9141 137.47 99.6352 137.722 99.2814C137.975 98.9275 138.103 98.5422 138.103 98.1289C138.103 97.7092 137.981 97.3427 137.738 97.0263C137.494 96.7132 137.092 96.45 136.529 96.234C136.17 96.0962 135.374 95.8769 134.14 95.5794C132.907 95.2821 132.045 95.003 131.551 94.7401C130.911 94.402 130.437 93.9822 130.124 93.4844C129.809 92.9864 129.653 92.4256 129.653 91.8086C129.653 91.1257 129.846 90.4899 130.231 89.9012C130.615 89.3092 131.174 88.8613 131.914 88.5544C132.651 88.2475 133.472 88.0941 134.375 88.0941C135.368 88.0941 136.246 88.2538 137.004 88.5765C137.763 88.896 138.347 89.3688 138.756 89.9952C139.165 90.6187 139.384 91.3264 139.415 92.1156L137.71 92.2472C137.619 91.3984 137.31 90.7563 136.783 90.3242C136.255 89.8889 135.474 89.6727 134.444 89.6727C133.369 89.6727 132.585 89.8699 132.095 90.2646C131.605 90.6593 131.358 91.1353 131.358 91.6929C131.358 92.1752 131.533 92.5728 131.88 92.8861C132.223 93.1963 133.113 93.5188 134.556 93.8446C135.999 94.1733 136.989 94.4583 137.526 94.7028C138.304 95.063 138.881 95.517 139.253 96.0715C139.625 96.6227 139.809 97.2585 139.809 97.9789C139.809 98.6962 139.606 99.3664 139.197 99.999C138.788 100.632 138.204 101.123 137.439 101.474C136.674 101.825 135.815 102 134.856 102C133.644 102 132.629 101.822 131.811 101.468C130.99 101.114 130.35 100.581 129.884 99.8673C129.416 99.1563 129.172 98.3514 129.147 97.4524L129.147 97.4522Z" fill="#545454"/>
<path d="M173.824 60.8491C173.323 58.5367 172.737 56.2163 172.363 53.9229C171.942 50.9521 171.591 47.9278 172.017 45.109C172.219 43.7819 172.644 42.1702 173.381 41.7143C173.783 41.4595 174.015 41.4326 174.323 41.6811C174.636 41.9537 174.972 42.5978 175.006 43.1097C175.078 44.3485 174.579 45.8524 174.04 47.2263C173.522 48.6477 172.821 50.007 172.145 51.3977C173.212 50.271 174.099 49.0004 174.952 47.6811C175.725 46.3176 176.525 44.9257 176.626 43.0717C176.652 42.6248 176.539 42.0359 176.372 41.6385C176.212 41.2067 175.978 40.758 175.578 40.36C175.196 39.9624 174.596 39.6448 173.97 39.6154C173.346 39.5779 172.775 39.7766 172.32 40.0566C171.372 40.605 170.892 41.6305 170.607 42.3647C170.286 43.164 170.103 43.9824 169.962 44.7965C169.519 48.0724 170.016 51.2309 170.775 54.2508C171.276 56.2095 172.109 58.05 172.724 59.9617C173.268 61.6496 174.11 64.2107 174.42 66.0432C174.587 67.0333 174.803 68.5026 174.54 70.4317C174.398 71.4807 174.073 72.4967 173.649 73.4713L173.117 74.7574L172.42 75.9535C172.007 76.786 171.34 77.4345 170.783 78.1558C169.47 79.4091 168.018 80.5586 166.285 81.1702C162.922 82.6164 159.123 82.7775 155.437 82.7063C151.723 82.5932 148.008 82.1247 144.309 81.5586C136.021 80.1982 104.566 72.4948 76.8992 72.6044C55.2172 72.6894 35.6948 80.2684 32.5889 81.459C29.055 82.8071 25.6229 84.4274 22.335 86.2912C19.0635 88.1666 15.8727 90.2722 13.2325 92.9754C16.0248 90.4402 19.2883 88.5174 22.5977 86.7766C25.9317 85.0661 29.3908 83.6053 32.9407 82.4184C40.0015 79.9318 47.3294 78.2555 54.7324 77.1813C69.5415 74.9759 84.609 74.8554 99.499 76.475C106.955 77.1919 114.381 78.2576 121.789 79.4986C129.202 80.7096 136.589 82.1685 144.085 83.1395C147.833 83.6157 151.608 83.9973 155.417 84.017C159.198 83.9874 163.134 83.7523 166.69 82.1014C168.501 81.3735 170.031 80.0733 171.361 78.6819C171.926 77.8938 172.594 77.1763 172.994 76.2908L173.665 75.0147L174.161 73.666C174.902 71.7671 175.151 69.7501 175.043 67.7508C174.958 66.1454 173.921 61.2972 173.824 60.8493L173.824 60.8491Z" fill="#133875"/>
<path d="M91.3957 36.2754C92.3032 36.2754 93.2106 35.7297 94.1162 34.6386L97.8356 30.1825C98.7412 29.1524 99.0742 28.243 98.832 27.4541C98.5908 26.6671 97.8356 26.272 96.5642 26.272H91.4865C90.2158 26.272 89.4606 26.4238 89.2194 26.726C88.9777 27.0308 88.8862 27.6362 88.9471 28.5456L89.5826 34.6386C89.8834 35.7297 90.4882 36.2754 91.3957 36.2754Z" fill="white"/>
<path d="M104.454 53.8743C104.817 52.8738 105.118 52.0703 105.361 51.464C105.722 50.6154 106.177 49.615 106.722 48.4625C107.266 47.3118 107.885 46.2209 108.581 45.1884C109.275 44.1586 110.031 43.2644 110.847 42.5056C111.663 41.748 112.554 41.3389 113.523 41.2779H113.703C114.067 41.2779 114.37 41.4004 114.612 41.6416C114.795 41.8637 114.853 42.1414 114.974 42.5966C115.094 43.0513 115.094 43.765 114.974 44.7344C114.67 46.675 114.081 48.3118 113.206 49.6453C112.329 50.9792 111.316 52.101 110.168 53.0098C109.018 53.9193 107.854 54.6472 106.675 55.193C105.497 55.7382 104.485 56.1334 103.638 56.3745C103.819 55.7085 104.09 54.8743 104.454 53.8743ZM152.329 34.7801C152.053 35.4772 151.611 36.108 150.992 36.4833C150.435 36.8463 149.646 37.0647 149.033 36.7054C148.079 36.146 148.045 34.5702 148.249 33.8103C148.51 32.8388 149.472 31.0877 151.649 30.3761C151.955 30.2758 152.294 30.223 152.631 30.1693C152.891 31.7316 152.848 33.3156 152.329 34.7801ZM194.501 24.8623C194.259 24.6505 194.048 24.4845 193.867 24.3613C193.504 24.3024 193.262 24.3928 193.14 24.634C192.596 25.4845 191.538 26.2578 189.967 26.9544C188.394 27.6515 185.917 27.9096 182.53 27.7268C181.382 27.6672 180.174 27.606 178.905 27.5447C177.817 27.4856 176.559 27.4086 175.141 27.3176C173.72 27.227 172.313 27.0911 170.924 26.9083L172.104 23.4527C172.224 23.2109 172.208 23.0583 172.058 22.9973C171.905 22.9384 171.8 22.9063 171.74 22.9063H164.667C164.243 22.9678 164.032 23.1198 164.032 23.3617L163.124 25.9983C159.31 25.9368 155.43 26.2218 152.687 26.6039C152.513 26.1473 152.363 25.6814 152.149 25.2421C151.426 23.7308 150.373 22.3137 149.251 21.1108C148.134 19.8838 146.946 18.7381 145.714 17.6354C143.21 15.4849 140.526 13.5017 137.498 12.0131C135.985 11.2778 133.863 10.2797 132.132 9.9603C130.408 9.59661 129.586 9.73024 127.958 10.1726C124.642 11.063 121.152 13.0708 118.357 14.8202C115.593 16.6291 112.995 18.6592 110.584 20.8941C108.247 23.1813 105.956 25.6414 104.531 28.6023C106.377 25.9115 108.793 23.7308 111.299 21.7175C113.795 19.687 116.464 17.8705 119.248 16.297C122.007 14.7016 124.921 13.309 127.896 12.5337C130.839 11.66 133.763 12.5024 136.618 13.8446C139.431 15.2142 142.108 16.989 144.618 18.9666C145.884 19.9429 147.118 20.9712 148.276 22.0696C149.466 23.1502 150.441 24.3266 151.146 25.7511C151.311 26.0821 151.468 26.4218 151.615 26.7688C150.995 26.8739 150.434 26.9811 150.014 27.0906C148.01 27.6105 146.207 28.3097 145.524 30.3617C144.737 32.7337 145.237 35.2719 147.649 36.9019C147.736 36.9598 148.384 37.3506 148.759 37.4527C149.639 37.6908 150.55 37.5209 151.346 37.0842C152.142 36.6428 152.708 35.8844 153.058 35.0931C153.754 33.4852 153.803 31.7334 153.607 30.0713C156.736 29.9169 160.468 31.092 161.312 31.092L153.331 54.011L153.246 54.2241C152.314 55.7752 151.324 57.2854 150.249 58.74C149.039 60.3768 147.875 61.7115 146.759 62.7414C145.638 63.7735 144.808 64.0152 144.264 63.4699L143.992 62.9242V62.5593C143.87 62.075 143.87 61.5459 143.992 60.9679C144.114 60.3931 144.233 59.9841 144.355 59.7403C144.719 58.4076 145.292 56.7396 146.079 54.7379C146.862 52.7374 147.559 50.8593 148.164 49.1002C148.586 48.0696 148.858 46.978 148.98 45.8262C149.1 44.6743 149.039 43.5832 148.8 42.5521C148.678 41.8849 148.359 41.1276 147.848 40.2778C147.332 39.4298 146.47 38.8533 145.263 38.5499C144.233 38.308 143.326 38.2772 142.542 38.4581C142.238 38.5189 141.982 38.5806 141.77 38.6409C141.558 38.7017 141.302 38.7923 140.999 38.9136C140.758 39.0354 140.605 39.0957 140.546 39.0957C139.154 39.8838 137.793 41.0962 136.466 42.7334C135.134 44.3702 133.896 46.0679 132.747 47.8265C133.412 45.887 134.018 44.1288 134.562 42.552C135.106 40.9749 135.528 39.7632 135.831 38.9136C135.889 38.6724 135.861 38.5189 135.739 38.4581C135.617 38.3997 135.498 38.3678 135.378 38.3678H128.394C128.153 38.3678 127.986 38.4286 127.897 38.5499C127.806 38.6724 127.76 38.7627 127.76 38.823L122.927 52.5997C122.683 53.007 122.459 53.394 122.183 53.8291C121.185 55.4055 120.143 56.9205 119.055 58.3763C118.751 58.74 118.223 59.3315 117.468 60.1497C116.71 60.9681 115.91 61.6819 115.064 62.2868C114.398 62.7737 113.553 63.2578 112.526 63.7427C111.677 64.1064 110.742 64.3944 109.714 64.6055C108.685 64.8197 107.629 64.8036 106.539 64.5612C106.056 64.4399 105.662 64.2885 105.362 64.1064C105.118 64.0461 104.846 63.8647 104.545 63.5606C103.94 63.0149 103.561 62.303 103.411 61.4235C103.26 60.5448 103.214 59.6501 103.274 58.74C106.417 58.4373 109.018 57.8312 111.074 56.9205C113.129 56.0116 114.778 54.9817 116.016 53.8291C117.254 52.6772 118.147 51.4805 118.691 50.2362C119.236 48.994 119.6 47.917 119.78 47.0084C119.96 46.099 120.052 45.4321 120.052 45.0072C120.111 44.2197 120.035 43.664 119.916 43.0979C119.811 42.6006 119.658 42.2783 119.6 42.0967C119.236 41.0666 118.736 40.2932 118.103 39.7775C117.468 39.2625 116.818 38.884 116.151 38.6409C115.427 38.3997 114.641 38.2772 113.795 38.2772C110.832 38.2169 107.946 39.1407 105.134 41.0507C102.322 42.9613 99.9206 45.9165 97.9247 49.9186C96.9761 51.6533 96.3239 53.3344 95.9424 54.9655C95.8756 55.0738 95.8177 55.1742 95.7486 55.2837C95.0238 56.4361 94.252 57.5891 93.4361 58.7398C92.62 59.8917 91.8341 60.8776 91.0787 61.696C90.3216 62.5149 89.627 63.105 88.992 63.4699C88.3588 63.8336 87.8587 63.8336 87.4956 63.4699L87.2237 62.9242C87.1624 62.8639 87.1342 62.7414 87.1342 62.5593V62.1057C87.1342 61.8023 87.1624 61.5292 87.2237 61.2868C87.2844 61.0444 87.3452 60.8023 87.406 60.5587C87.4654 60.3182 87.5262 60.0745 87.5869 59.8315C88.0089 58.7398 88.4029 57.6341 88.7668 56.5113C89.1282 55.3909 89.5222 54.2531 89.9442 53.1012C90.2467 52.0706 90.5792 51.0859 90.9431 50.1459C91.3064 49.2062 91.637 48.2814 91.9402 47.3712L94.8429 38.9136C94.9017 38.6107 94.8712 38.444 94.7515 38.4138C94.63 38.3831 94.5098 38.3678 94.3883 38.3678H87.4062C87.1626 38.3678 86.9865 38.3891 86.8441 38.5321C86.7369 38.6402 86.7338 38.6385 86.6797 38.7315L82.28 51.3528C81.9572 51.9836 81.5663 52.6863 81.1025 53.4652C80.165 55.0416 79.1539 56.6027 78.0657 58.148C76.9771 59.6948 75.8894 61.0294 74.801 62.1499C73.7132 63.2729 72.8665 63.8335 72.2615 63.8335C71.8388 63.8335 71.5669 63.6508 71.4455 63.2871C71.3233 62.924 71.2952 62.5295 71.3559 62.1056C71.4148 61.3174 71.6118 60.3765 71.945 59.2854C72.2755 58.1938 72.7442 56.7841 73.3494 55.0564C73.9549 53.3285 74.7237 51.1613 75.6619 48.5542C76.6001 45.9476 77.7325 42.7332 79.0626 38.9134C79.0626 38.6105 79.0179 38.4439 78.9264 38.4136C78.8375 38.3829 78.7296 38.3676 78.6099 38.3676H73.3494H71.9891C71.4455 38.3676 70.8872 38.3829 70.3122 38.4136C69.7378 38.4439 69.2078 38.4901 68.725 38.5497C68.2414 38.6105 67.8781 38.6722 67.6364 38.7313C67.6364 38.2463 67.5468 37.6851 67.364 37.0494C67.1837 36.4119 66.9118 35.8072 66.548 35.23C66.1866 34.6545 65.7013 34.1704 65.0988 33.7752C64.4938 33.3808 63.7668 33.1839 62.9225 33.1839C61.7733 33.1839 60.7745 33.4423 59.9297 33.9561C59.0811 34.4724 58.5694 35.5179 58.3872 37.0936V37.7311C58.3872 37.9735 58.4192 38.2461 58.478 38.5495L58.659 39.0953C58.659 39.2178 58.7505 39.2762 58.9309 39.2762C59.1136 39.2762 59.3695 39.1716 59.7027 38.9587C60.0333 38.7469 60.3524 38.6406 60.6543 38.6406C61.3795 38.6406 61.8624 38.8991 62.1067 39.4128C62.3458 39.929 62.4674 40.4288 62.4674 40.9137C62.4674 41.2183 62.4534 41.4595 62.4232 41.6416C62.3925 41.8237 62.3626 42.0046 62.3317 42.1874C62.3011 42.3695 62.2422 42.5818 62.1509 42.8242C62.0594 43.0666 61.9237 43.401 61.7428 43.8242L61.5618 44.1884V44.2797C61.5011 44.3405 61.471 44.4015 61.471 44.4618L58.3873 50.6451C58.2065 50.9499 58.0401 51.2366 57.8892 51.5097C57.7395 51.7824 57.6033 52.0414 57.4812 52.2826H59.5667C60.1109 51.1911 60.6692 50.0852 61.2435 48.9636C61.8179 47.842 62.3927 46.8573 62.9671 46.0069C63.5419 45.1589 64.1144 44.4618 64.6905 43.916C65.2636 43.37 65.8238 43.0976 66.368 43.0976C67.0925 43.0976 67.5312 43.37 67.6835 43.916C67.8337 44.4618 67.9093 44.9768 67.9093 45.4616C67.9093 46.5527 67.3952 48.6152 66.368 51.6458L65.2796 54.9198C65.0379 55.5876 64.8267 56.2545 64.6446 56.9203C64.5222 57.5276 64.4029 58.2253 64.2825 59.0131C64.161 59.8018 64.1002 60.5907 64.1002 61.3772C64.1002 62.2866 64.2218 63.1825 64.4635 64.06C64.7052 64.9394 65.1579 65.6218 65.8238 66.1068L65.9152 66.1978C66.2765 66.5615 66.7594 66.8051 67.3644 66.9252C67.9699 67.047 68.5748 67.1073 69.1799 67.1073C70.8708 67.1073 72.4886 66.5768 74.03 65.516C75.573 64.4552 76.9615 63.1827 78.202 61.6962C78.8897 60.871 79.5205 60.0107 80.1162 59.129C80.0249 59.7579 79.9188 60.3671 79.8788 61.0593C79.8201 62.1207 79.9394 63.1052 80.2421 64.0152C80.2421 64.076 80.2728 64.1671 80.3334 64.2884C80.3943 64.4103 80.4556 64.5469 80.5138 64.6976C80.5751 64.8489 80.6666 64.9855 80.7863 65.1068C81.0888 65.5924 81.452 65.9867 81.8747 66.2889C82.1767 66.532 82.4631 66.6981 82.7357 66.7886C83.0073 66.8802 83.2651 66.9566 83.5068 67.0162C83.7485 67.0778 84.0204 67.1073 84.3229 67.1073C85.5308 67.2286 86.6943 67.0618 87.8146 66.607C88.9317 66.1523 89.9914 65.516 90.9876 64.6976C91.9871 63.8791 92.9063 62.9391 93.7554 61.8774C94.3167 61.1725 94.8125 60.4507 95.3223 59.7313C95.3333 60.056 95.3028 60.3553 95.3407 60.6955C95.432 61.5139 95.6573 62.3186 96.0206 63.105C96.3844 63.8939 96.8978 64.6373 97.5617 65.3339C98.2281 66.031 99.1042 66.5933 100.193 67.0162C100.676 67.1978 101.159 67.3485 101.643 67.471C102.125 67.5916 102.7 67.6821 103.367 67.7436C105.965 67.986 108.354 67.7436 110.53 67.0162C112.405 66.4109 114.037 65.622 115.428 64.652C116.818 63.6823 117.935 62.7414 118.783 61.8331C119.267 61.3483 119.735 60.8025 120.189 60.1952C120.51 59.7645 120.76 59.4369 120.977 59.1589C120.902 59.9619 120.922 60.7328 121.049 61.468C121.171 62.6814 121.638 63.8334 122.454 64.9243C123.27 66.0154 124.677 66.7125 126.673 67.0159H126.854H127.125C127.306 66.9563 127.398 66.7742 127.398 66.4706C127.398 66.1672 127.456 65.4701 127.578 64.3785C127.7 63.287 127.941 62.1665 128.305 61.014C129.513 58.3473 130.693 55.9068 131.842 53.6922C132.989 51.4802 134.063 49.5997 135.059 48.0533C136.058 46.5076 136.964 45.3563 137.78 44.5977C138.596 43.8402 139.276 43.5831 139.82 43.8242C139.881 43.8858 140.003 43.9768 140.184 44.0969C140.364 44.2194 140.486 44.5226 140.547 45.0069C140.606 45.493 140.531 46.2505 140.32 47.2807C140.106 48.312 139.67 49.7678 139.004 51.6458C138.701 52.5553 138.339 53.7379 137.916 55.193C137.494 56.6477 137.191 57.9824 137.011 59.1944C136.828 60.3474 136.753 61.4385 136.783 62.4685C136.813 63.5005 137.069 64.3785 137.554 65.1064C137.855 65.5921 138.218 65.9698 138.643 66.243C139.065 66.5156 139.459 66.7125 139.82 66.8343C140.242 67.0159 140.666 67.1069 141.091 67.1069C142.299 67.2282 143.462 67.0614 144.583 66.6067C145.7 66.152 146.759 65.5156 147.756 64.6972C148.753 63.8788 149.69 62.9387 150.568 61.8771C151.057 61.284 151.468 60.6743 151.912 60.0712C151.877 60.4084 151.811 60.705 151.79 61.059C151.732 62.1203 151.851 63.1049 152.153 64.0149C152.153 64.0757 152.184 64.1667 152.243 64.288C152.303 64.41 152.365 64.5466 152.425 64.6972C152.486 64.8486 152.576 64.9851 152.697 65.1064C153 65.5921 153.364 65.9864 153.786 66.2885C154.088 66.5316 154.374 66.6977 154.646 66.7883C154.918 66.8798 155.177 66.9563 155.418 67.0159C155.658 67.0774 155.929 67.1069 156.234 67.1069C157.442 67.2282 158.622 67.0614 159.771 66.6067C160.918 66.152 162.022 65.5156 163.08 64.6972C164.137 63.8788 165.134 62.9387 166.072 61.8771C167.008 60.8169 167.899 59.74 168.748 58.6493C170.62 56.0427 174.312 49.1732 175.945 45.7771L174.346 46.4098C172.732 49.8889 171.527 51.0541 170.924 52.0548C170.319 53.0559 169.592 54.1327 168.748 55.2833C167.899 56.4357 167.008 57.5888 166.072 58.7394C165.134 59.8913 164.227 60.8772 163.352 61.6957C162.474 62.5146 161.689 63.1047 160.994 63.4696C160.299 63.8333 159.77 63.8333 159.406 63.4696L159.135 62.9238C159.073 62.8635 159.043 62.741 159.043 62.5589V62.1054C159.043 61.802 159.073 61.5288 159.135 61.2864C159.193 61.044 159.254 60.802 159.316 60.5584C159.376 60.3179 159.437 60.0741 159.498 59.8312L160.948 55.6475L169.292 31.6369C171.224 31.7594 173.024 31.8652 174.688 31.9556C176.349 32.0461 177.816 32.1236 179.085 32.1827C185.312 32.4263 189.998 31.4868 193.14 29.3638C193.262 29.2425 193.443 29.0911 193.685 28.9085C193.926 28.7275 194.168 28.4852 194.411 28.1817L194.683 27.7264C194.803 27.4242 194.895 27.1351 194.955 26.8625C195.015 26.5898 195.015 26.2717 194.955 25.9075C194.895 25.4225 194.742 25.0753 194.501 24.8623Z" fill="#133875"/>
<path d="M94.6561 22.5104C93.1725 22.2741 91.1992 23.4175 91.1992 25.8221H97.0597C97.0597 23.8136 96.0854 22.7387 94.6559 22.5104H94.6561Z" fill="white"/>
<path d="M94.7309 23.6451H93.8474C93.8474 23.6451 94.2499 20.8905 94.2695 20.5687C94.2891 20.2462 94.6628 20.1803 94.6964 20.4258C94.7309 20.6714 94.7309 23.6451 94.7309 23.6451Z" fill="white"/>
<path d="M130.964 4.6358C131.428 4.37793 131.744 3.89626 131.744 3.3258C131.744 2.47854 130.215 1.4563 130.215 1.4563C130.215 1.4563 128.686 2.47837 128.686 3.3258C128.686 3.88514 128.992 4.35951 129.441 4.62103C129.555 4.68671 129.445 4.845 129.445 4.845C129.445 4.845 127.501 5.96994 127.501 7.01025C127.501 8.28289 128.717 8.89314 130.215 8.89314C131.716 8.89314 132.93 8.28289 132.93 7.01025C132.93 5.96594 130.973 4.84188 130.973 4.84188C130.973 4.84188 130.858 4.69487 130.964 4.6358Z" fill="white"/>
<path d="M130.666 0.522328C130.666 0.810773 130.464 1.04466 130.216 1.04466C129.967 1.04466 129.765 0.810773 129.765 0.522328C129.765 0.23371 129.967 0 130.216 0C130.464 0 130.666 0.23371 130.666 0.522328Z" fill="white"/>
<path d="M56.0766 30.7281C55.7436 28.122 55.0797 25.7126 54.0807 23.4979C53.0842 21.2846 51.7075 19.3592 49.9554 17.7224C48.2018 16.0857 45.9335 14.9036 43.1541 14.1757C42.8497 14.1156 42.5191 14.0544 42.156 13.9936C41.8528 13.9345 41.4895 13.8885 41.0674 13.857C40.6454 13.8275 40.1902 13.812 39.7072 13.812C38.8015 13.812 37.7421 13.9032 36.5339 14.0853C35.3242 14.2662 34.0853 14.6304 32.8167 15.1769C31.546 15.7222 30.2913 16.4806 29.0532 17.4501C28.3011 18.0377 27.5893 18.7366 26.9162 19.547C26.4787 20.0746 24.7749 22.2859 24.4726 22.8605C24.1706 23.4377 23.8677 24.0593 23.5675 24.7257C25.0781 24.3024 26.4377 24.0881 27.6482 24.0881C28.3121 24.0881 28.8863 24.1343 29.3699 24.2249C29.8528 24.3164 30.2466 24.4223 30.5491 24.5435C30.9122 24.1799 31.335 23.6648 31.8178 22.9972C32.3014 22.3314 32.8915 21.6786 33.5863 21.0422C34.2807 20.4054 35.1132 19.8454 36.0816 19.3592C37.0478 18.8749 38.2253 18.632 39.6179 18.632C41.7334 18.632 43.4715 19.163 44.8313 20.2238C46.192 21.2846 47.2498 22.6489 48.0067 24.3163C48.7621 25.9849 49.2591 27.8174 49.5033 29.8186C49.7424 31.8197 49.8339 33.7609 49.775 35.6389C49.6529 37.9439 49.3505 40.4138 48.8677 43.0511C48.3822 45.6892 47.7184 48.3264 46.8717 50.9637C46.025 53.6018 44.9513 56.1331 43.6519 58.5575C42.3525 60.9837 40.842 63.1215 39.1184 64.9698C37.395 66.8195 35.4157 68.3031 33.1783 69.4261C30.9412 70.547 28.4319 71.109 25.6525 71.109C22.2663 71.109 19.59 70.1835 17.6271 68.3343C15.6613 66.486 14.3018 64.1371 13.5466 61.2864C12.7887 58.4369 12.5618 55.3288 12.8662 51.9649C13.167 48.5992 13.8938 45.4165 15.0425 42.4157C16.1898 39.4129 17.7022 36.8071 19.5759 34.5936C21.4497 32.3809 23.5675 31.0007 25.9243 30.4556H26.9212C26.982 30.4556 27.2686 30.5164 27.7839 30.6377C28.2955 30.7597 28.8557 31.0469 29.4614 31.501C30.064 31.9564 30.5797 32.6535 31.0021 33.5932C31.4242 34.5342 31.607 35.852 31.5464 37.5491C31.5464 37.9128 31.485 38.5946 31.3653 39.5957C31.2437 40.5964 31.0021 41.6275 30.6407 42.6883C30.2774 43.7491 29.7472 44.7041 29.0533 45.5533C28.3565 46.4026 27.4349 46.8259 26.2881 46.8259C25.3193 46.8259 24.6703 46.5847 24.3369 46.0985C24.0039 45.6143 23.8 45.0772 23.8393 44.7343C23.8786 44.3917 24.2007 43.8857 24.2007 43.6433C24.2007 43.22 23.959 43.0058 23.4762 43.0058C22.508 43.0058 21.7526 43.4612 21.2079 44.37C20.6642 45.2801 20.3918 46.1601 20.3918 47.008C20.331 47.371 20.3617 47.8417 20.4831 48.4184C20.6035 48.9945 20.8754 49.5394 21.2992 50.0553C21.7219 50.5701 22.3576 51.0096 23.2036 51.3733C24.0505 51.7369 25.1916 52.023 26.5844 52.023C28.9411 52.023 30.8209 51.3886 32.273 50.3277C33.7223 49.2669 34.8713 48.0535 35.7181 46.6895C36.5648 45.3253 37.1696 44.0071 37.5305 42.7336C37.8944 41.4598 38.6558 38.5389 38.166 35.0032C37.9567 33.4919 37.5305 32.0023 36.8058 30.5463C36.0812 29.0918 34.9928 27.8341 33.5419 26.7727C32.0902 25.7131 30.0964 25.1802 27.5567 25.1802C24.8362 25.1802 22.4018 25.849 20.2562 27.1818C18.11 28.5164 16.2061 30.1983 14.5428 32.2294C12.8802 34.2612 11.4734 36.4584 10.3266 38.8233C9.35977 40.8113 8.63018 42.669 8.04977 44.4436C6.95391 42.3528 4.44392 41.5825 2.33468 42.7637C0.842402 43.5993 -0.201132 45.2004 0.0332863 47.1719C0.135162 48.0285 1.23397 49.4032 2.19589 49.3048C2.5911 49.2647 1.82044 47.9234 2.79901 47.0077C4.27153 45.6289 5.89929 46.902 6.41889 47.588C6.6495 47.8926 6.79555 48.3837 6.89431 48.9437C6.87421 49.0445 6.85498 49.1326 6.83419 49.2372C6.50361 50.9046 6.30645 52.7993 6.24581 54.9203C6.12556 57.9533 6.47277 60.7277 7.28882 63.2421C8.10487 65.7587 9.32963 67.9112 10.9615 69.6992C12.5942 71.4869 14.5875 72.8829 16.9466 73.8829C19.3039 74.8834 21.9936 75.3842 25.0166 75.3842C29.9746 75.3842 34.372 74.2612 38.2109 72.0191C42.0498 69.775 45.2845 66.8807 47.9153 63.3337C50.5443 59.787 52.5702 55.8297 53.9918 51.4647C55.4109 47.0991 56.2128 42.7948 56.3933 38.5502C56.5155 35.9442 56.4073 33.3359 56.0766 30.7288V30.7281Z" fill="#133875"/>
</g>
<defs>
<clipPath id="clip0_343_19">
<rect width="195" height="102" fill="white"/>
</clipPath>
</defs>
</svg>
