<svg width="170" height="22" viewBox="0 0 170 22" fill="none" xmlns="http://www.w3.org/2000/svg">
<g clip-path="url(#clip0_371_1059)">
<path d="M152.967 21.2341C152.436 21.5064 151.834 21.0292 151.941 20.4201L153.082 13.9164L148.238 9.30186C147.786 8.87011 148.021 8.08086 148.627 7.99561L155.362 7.03861L158.365 1.08899C158.636 0.552736 159.369 0.552736 159.639 1.08899L162.642 7.03861L169.377 7.99561C169.984 8.08086 170.219 8.87011 169.765 9.30186L164.922 13.9164L166.063 20.4201C166.171 21.0292 165.568 21.5064 165.038 21.2341L159 18.1321L152.965 21.2341H152.967Z" fill="#FF9900"/>
</g>
<g clip-path="url(#clip1_371_1059)">
<path d="M115.967 21.2341C115.436 21.5064 114.834 21.0292 114.941 20.4201L116.082 13.9164L111.238 9.30186C110.786 8.87011 111.021 8.08086 111.627 7.99561L118.362 7.03861L121.365 1.08899C121.636 0.552736 122.369 0.552736 122.639 1.08899L125.642 7.03861L132.377 7.99561C132.984 8.08086 133.219 8.87011 132.765 9.30186L127.922 13.9164L129.063 20.4201C129.171 21.0292 128.568 21.5064 128.038 21.2341L122 18.1321L115.965 21.2341H115.967Z" fill="#FF9900"/>
</g>
<g clip-path="url(#clip2_371_1059)">
<path d="M78.9666 21.2341C78.4359 21.5064 77.8336 21.0292 77.9409 20.4201L79.0821 13.9164L74.238 9.30186C73.7856 8.87011 74.0207 8.08086 74.6271 7.99561L81.3619 7.03861L84.3649 1.08899C84.6357 0.552736 85.3686 0.552736 85.6395 1.08899L88.6425 7.03861L95.3772 7.99561C95.9836 8.08086 96.2187 8.87011 95.765 9.30186L90.9222 13.9164L92.0635 20.4201C92.1707 21.0292 91.5685 21.5064 91.0377 21.2341L85.0001 18.1321L78.9652 21.2341H78.9666Z" fill="#FF9900"/>
</g>
<g clip-path="url(#clip3_371_1059)">
<path d="M41.9666 21.2341C41.4359 21.5064 40.8336 21.0292 40.9409 20.4201L42.0821 13.9164L37.238 9.30186C36.7856 8.87011 37.0207 8.08086 37.6271 7.99561L44.3619 7.03861L47.3649 1.08899C47.6357 0.552736 48.3686 0.552736 48.6395 1.08899L51.6425 7.03861L58.3772 7.99561C58.9836 8.08086 59.2187 8.87011 58.765 9.30186L53.9222 13.9164L55.0635 20.4201C55.1707 21.0292 54.5685 21.5064 54.0377 21.2341L48.0001 18.1321L41.9652 21.2341H41.9666Z" fill="#FF9900"/>
</g>
<g clip-path="url(#clip4_371_1059)">
<path d="M4.9666 21.2341C4.43585 21.5064 3.8336 21.0292 3.94085 20.4201L5.0821 13.9164L0.237977 9.30186C-0.214398 8.87011 0.0207266 8.08086 0.627102 7.99561L7.36185 7.03861L10.3649 1.08899C10.6357 0.552736 11.3686 0.552736 11.6395 1.08899L14.6425 7.03861L21.3772 7.99561C21.9836 8.08086 22.2187 8.87011 21.765 9.30186L16.9222 13.9164L18.0635 20.4201C18.1707 21.0292 17.5685 21.5064 17.0377 21.2341L11.0001 18.1321L4.96523 21.2341H4.9666Z" fill="#FF9900"/>
</g>
<defs>
<clipPath id="clip0_371_1059">
<rect width="22" height="22" fill="white" transform="translate(148)"/>
</clipPath>
<clipPath id="clip1_371_1059">
<rect width="22" height="22" fill="white" transform="translate(111)"/>
</clipPath>
<clipPath id="clip2_371_1059">
<rect width="22" height="22" fill="white" transform="translate(74)"/>
</clipPath>
<clipPath id="clip3_371_1059">
<rect width="22" height="22" fill="white" transform="translate(37)"/>
</clipPath>
<clipPath id="clip4_371_1059">
<rect width="22" height="22" fill="white"/>
</clipPath>
</defs>
</svg>
