<svg width="42" height="43" viewBox="0 0 42 43" fill="none" xmlns="http://www.w3.org/2000/svg">
<path d="M20.9995 3.59668C11.3395 3.59668 3.49951 11.4367 3.49951 21.0967C3.49951 30.7567 11.3395 38.5967 20.9995 38.5967C30.6595 38.5967 38.4995 30.7567 38.4995 21.0967C38.4995 11.4367 30.6595 3.59668 20.9995 3.59668ZM29.1195 15.4967C28.857 18.2617 27.7195 24.9817 27.142 28.0792C26.897 29.3917 26.407 29.8292 25.952 29.8817C24.937 29.9692 24.167 29.2167 23.187 28.5692C21.647 27.5542 20.772 26.9242 19.2845 25.9442C17.552 24.8067 18.672 24.1767 19.6695 23.1617C19.932 22.8992 24.412 18.8217 24.4995 18.4542C24.5117 18.3985 24.51 18.3407 24.4948 18.2858C24.4796 18.2309 24.4511 18.1806 24.412 18.1392C24.307 18.0517 24.167 18.0867 24.0445 18.1042C23.887 18.1392 21.437 19.7667 16.6595 22.9867C15.9595 23.4592 15.3295 23.7042 14.7695 23.6867C14.1395 23.6692 12.9495 23.3367 12.057 23.0392C10.9545 22.6892 10.097 22.4967 10.167 21.8842C10.202 21.5692 10.6395 21.2542 11.462 20.9217C16.572 18.6992 19.967 17.2292 21.6645 16.5292C26.5295 14.4992 27.527 14.1492 28.192 14.1492C28.332 14.1492 28.6645 14.1842 28.8745 14.3592C29.0495 14.4992 29.102 14.6917 29.1195 14.8317C29.102 14.9367 29.137 15.2517 29.1195 15.4967Z" fill="white"/>
</svg>
